<svg width="500" height="427" viewBox="0 0 500 427" fill="none" xmlns="http://www.w3.org/2000/svg">
<path d="M112.028 345.535L112.66 343.069L105.501 341.235L104.869 343.7L112.028 345.535Z" fill="#5F92D3"/>
<path d="M115.681 349.097L116.312 346.632L109.153 344.797L108.52 347.263L115.681 349.097" fill="#5F92D3"/>
<path d="M119.333 352.66L119.965 350.194L112.804 348.36L112.173 350.825L119.333 352.66" fill="#5F92D3"/>
<path d="M122.984 356.221L123.617 353.757L116.457 351.923L115.825 354.387L122.984 356.221Z" fill="#5F92D3"/>
<path d="M357.847 196.85C362.384 199.512 369.769 199.564 374.343 196.966C378.916 194.368 378.947 190.105 374.409 187.441C369.873 184.78 362.487 184.728 357.913 187.328C353.34 189.925 353.309 194.189 357.847 196.85ZM263.291 121.417L330.484 160.841C347.52 155.613 369.225 157.229 383.549 165.633C400.975 175.857 400.86 192.237 383.292 202.216C379.348 204.456 374.859 206.184 370.073 207.4C366.691 208.26 363.161 208.864 359.569 209.213C345.593 210.573 330.679 208.081 319.927 201.772C306.905 194.132 303.683 183.054 310.215 173.778L300.943 168.338L301.205 162.453L291.448 162.385L291.693 156.873L281.936 156.805L282.183 151.292L272.424 151.224L272.671 145.712L262.912 145.644L263.159 140.13L252.741 140.057L249.563 138.193L246.055 123.72L263.291 121.417" fill="#C8DDEB"/>
<path d="M226.531 370.8L317.153 318.696C323.255 315.173 322.489 309.02 315.444 304.952L227.491 254.172C220.445 250.105 209.788 249.663 203.687 253.185L113.065 305.289C106.964 308.813 107.729 314.965 114.775 319.033L202.728 369.813C209.773 373.881 220.431 374.324 226.531 370.8" fill="#C8DDEB"/>
<path d="M120.291 252.666L135.957 243.621L78.192 210.272C75.464 208.696 75.464 206.133 78.192 204.557L137.204 170.488C139.932 168.912 144.371 168.912 147.1 170.488L204.864 203.837L220.532 194.793L162.767 161.441C151.401 154.88 132.905 154.88 121.537 161.442L62.5254 195.513C51.1587 202.076 51.1587 212.754 62.524 219.317L120.291 252.666" fill="#5F92D3"/>
<path d="M95.0092 256.651C95.0092 248.273 100.101 238.545 106.384 234.917L211.043 174.493C213.856 172.869 216.425 172.753 218.411 173.863L218.417 173.859L343.38 246.475L222.536 337.533L99.4252 266.079C99.0452 265.905 98.6772 265.705 98.3385 265.447H98.3359H98.3372C96.2812 263.889 95.0092 260.835 95.0092 256.651" fill="#D9EFFB"/>
<path d="M222.536 337.533L99.4255 266.079C99.0455 265.905 98.6774 265.705 98.3387 265.447H98.3361L98.3374 265.445C96.2814 263.889 95.0094 260.835 95.0094 256.651C95.0094 252.652 96.1788 248.351 98.0761 244.548L238.412 325.571L222.536 337.533" fill="#263C7A"/>
<path d="M230.408 337.211L335.067 276.785C341.349 273.159 346.44 263.429 346.44 255.052C346.44 246.677 341.349 242.828 335.067 246.453L230.408 306.88C224.125 310.505 219.032 320.236 219.032 328.611C219.032 336.988 224.125 340.837 230.408 337.211Z" fill="#5F92D3"/>
<path d="M246.083 316.832L258.665 309.573C259.917 308.851 260.933 306.911 260.933 305.241C260.933 303.572 259.917 302.805 258.665 303.528L246.083 310.785C244.831 311.509 243.816 313.448 243.816 315.117C243.816 316.787 244.831 317.555 246.083 316.832Z" fill="white"/>
<path d="M340.567 104.049L319.063 116.265L297.121 103.39L297.18 97.7905L297.367 97.8998L297.384 97.5051L287.627 97.4371L287.685 91.9238L278.116 91.8571L278.173 86.3425L268.604 86.2758L268.661 80.7624L259.092 80.6958L259.149 75.1811L248.92 75.1091L245.743 73.2451L242.233 58.7704L242.292 53.1704L243.984 58.5371L259.469 56.4691L340.567 104.049" fill="#4067B1"/>
<path d="M319.121 110.664L297.18 97.7905L297.443 91.9052L287.685 91.8372L287.931 86.3252L278.173 86.2572L278.419 80.7439L268.661 80.6759L268.909 75.1625L259.151 75.0958L259.397 69.5825L248.977 69.5092L245.799 67.6452L242.292 53.1705L259.528 50.8692L340.624 98.4492L319.121 110.664" fill="#D9EFFB"/>
<path d="M304.511 102.092C306.719 98.9545 310.036 96.0225 314.476 93.4999C317.604 91.7225 321.085 90.2839 324.776 89.1519L340.624 98.4492L319.121 110.664L304.511 102.092Z" fill="#4067B1"/>
<path d="M242.88 55.6012L242.292 53.1705L245.184 52.7852L313.703 92.9879L310.095 95.0372L242.88 55.6012Z" fill="#5F92D3"/>
<path d="M392.537 121.716L392.775 113.754L390.227 119.13L392.537 121.716Z" fill="#D4D0CE"/>
<path d="M353.913 124.734C349.34 127.332 349.309 131.597 353.847 134.259C358.383 136.921 365.769 136.972 370.343 134.374C374.916 131.774 374.947 127.512 370.409 124.849C365.872 122.188 358.487 122.137 353.913 124.734V124.734ZM379.292 139.624C361.723 149.605 333.353 149.405 315.927 139.181C307.189 134.054 302.864 127.382 302.935 120.744L302.933 120.748L303.177 112.314L304.609 113.909C306.632 109.752 310.483 105.836 316.185 102.598C333.752 92.6185 362.123 92.8172 379.548 103.041C396.975 113.266 396.86 129.645 379.292 139.624" fill="#4067B1"/>
<path d="M354.151 116.777C349.576 119.377 349.547 123.64 354.084 126.302C358.621 128.964 366.007 129.016 370.58 126.417C375.153 123.82 375.184 119.555 370.647 116.893C366.111 114.232 358.725 114.18 354.151 116.777V116.777ZM379.528 131.668C361.961 141.648 333.591 141.449 316.165 131.224C298.739 121 298.853 104.621 316.421 94.6412C333.989 84.6612 362.359 84.8598 379.787 95.0852C397.212 105.309 397.097 121.688 379.528 131.668Z" fill="#F5F6F5"/>
<path d="M359.16 136.026C363.024 136.63 367.3 136.102 370.343 134.374C373.623 132.51 374.552 129.793 373.151 127.421L381.109 121.11C381.109 121.11 385.269 116.417 389.388 111.764C395.796 121.13 392.423 132.164 379.292 139.624C373.499 142.916 367.007 144.784 359.644 145.868L359.16 136.026Z" fill="#5F92D3"/>
<path d="M354.151 116.777C349.576 119.377 349.547 123.64 354.084 126.303C358.621 128.964 366.007 129.016 370.58 126.417C375.153 123.82 375.184 119.555 370.647 116.893C366.111 114.232 358.725 114.18 354.151 116.777V116.777ZM379.528 131.668C375.584 133.908 371.096 135.636 366.309 136.852C362.928 137.712 359.399 138.316 355.805 138.664C341.831 140.025 326.915 137.533 316.165 131.224C298.739 121 298.853 104.621 316.421 94.6412C333.989 84.6612 362.359 84.8599 379.787 95.0852C397.212 105.309 397.097 121.688 379.528 131.668Z" fill="#D9EFFB"/>
<path d="M387.829 113.541C386.973 108.441 383.193 103.461 376.464 99.5118C360.96 90.4145 335.719 90.2385 320.088 99.1172C312.32 103.53 308.396 109.349 308.307 115.202C307.192 108.554 311.056 101.709 319.903 96.6838C335.532 87.8038 360.773 87.9812 376.277 97.0772C384.076 101.654 387.919 107.614 387.829 113.541" fill="#4067B1"/>
<path d="M376.659 118.507C379.821 118.507 383.365 119.605 387.063 121.773C400.215 129.491 410.828 148.173 410.719 163.423C410.671 170.528 408.307 175.767 404.063 178.175C399.82 180.583 394.111 179.935 387.983 176.34C374.829 168.624 364.217 149.94 364.324 134.692C364.353 130.508 365.208 126.864 366.799 124.155C367.872 122.324 369.281 120.905 370.983 119.937C372.665 118.981 374.579 118.507 376.659 118.507V118.507ZM398.399 185.951C401.555 185.951 404.521 185.199 407.189 183.683C413.485 180.109 416.989 172.931 417.052 163.465C417.176 146.203 405.16 125.049 390.268 116.311C382.109 111.523 374.149 110.853 367.853 114.431C365.172 115.955 362.979 118.148 361.336 120.948C359.152 124.669 358.027 129.279 357.991 134.649C357.868 151.912 369.885 173.067 384.777 181.804C389.477 184.56 394.112 185.951 398.399 185.951" fill="#4067B1"/>
<path d="M368.388 132.518L355.88 135.584L354.084 126.302C358.621 128.964 366.007 129.016 370.58 126.417L368.388 132.518Z" fill="#D9EFFB"/>
<path d="M379.528 131.668C375.584 133.908 371.096 135.636 366.309 136.852C362.928 137.712 359.399 138.316 355.805 138.664C341.831 140.025 326.915 137.533 316.165 131.224L367.101 130.081L379.528 131.668" fill="#D9EFFB"/>
<path d="M360.708 138.1C360.708 138.1 366.123 137.219 371.771 135.248V143.062C369.079 144.002 364.643 145.362 360.844 145.865C349.181 147.405 360.708 138.1 360.708 138.1" fill="#4067B1"/>
<path d="M368.831 136.19C371.159 135.504 373.695 134.628 376.036 133.532C382.849 130.341 374.231 142.16 374.231 142.16C374.231 142.16 371.909 143.084 368.831 144.028V136.19Z" fill="#5F92D3"/>
<path d="M241.044 273.497L263.331 287.87L274.18 286.109L247.68 273.298L241.044 273.497" fill="#5F92D3"/>
<path d="M267.989 346.068C267.989 346.068 274.409 342.829 278.352 347.652C282.293 352.472 287.929 363.851 288.104 371.541C288.279 379.229 282.019 378.712 278.299 376.891C274.576 375.07 263.707 359.304 263.048 356.215C262.391 353.124 263.824 348.946 264.871 348.129C265.916 347.312 267.989 346.068 267.989 346.068" fill="#263C7A"/>
<path d="M266.588 344.521L266.292 351.172C266.228 352.586 266.939 353.933 268.171 354.632C269.292 355.268 270.92 355.756 273.123 355.401C277.959 354.624 278.391 353.242 278.736 346.593C279.08 339.944 266.588 344.521 266.588 344.521Z" fill="#5F92D3"/>
<path d="M291.488 333.279C291.488 333.279 297.908 330.043 301.851 334.863C305.792 339.682 311.428 351.063 311.603 358.753C311.777 366.441 305.517 365.923 301.797 364.104C298.076 362.282 287.205 346.516 286.548 343.427C285.889 340.336 287.323 336.16 288.369 335.341C289.415 334.524 291.488 333.279 291.488 333.279" fill="#263C7A"/>
<path d="M290.086 331.732L289.79 338.383C289.726 339.797 290.437 341.145 291.669 341.844C292.79 342.48 294.418 342.968 296.621 342.613C301.457 341.836 301.889 340.454 302.234 333.805C302.578 327.156 290.086 331.732 290.086 331.732Z" fill="#5F92D3"/>
<path d="M232.805 209.628C234.705 178.713 266.285 214.176 266.285 214.176L287.9 235.361L307.363 256.742C311.164 260.917 312.932 266.556 312.196 272.154L304.324 332.105C303.935 335.066 301.401 337.25 298.415 337.226C297.572 337.22 296.605 337.144 295.499 336.972C288.475 335.878 288.993 329.2 288.993 329.2L290.432 273.126L249.559 248.488C249.559 248.488 230.906 240.542 232.805 209.628Z" fill="#D9EFFB"/>
<path d="M274.813 262.529L280.63 260.393C280.765 260.393 290.517 269.826 290.432 273.126L286.057 274.532L275.069 263.866L274.813 262.529" fill="#5F92D3"/>
<path d="M241.044 273.497C241.044 273.497 216.753 259.628 213.847 253.813C212.707 251.536 210.937 249.157 218.025 245.715L250.42 268.807L249.016 276.757L241.044 273.497" fill="#5F92D3"/>
<path d="M209.305 221.557C211.332 190.652 242.787 226.105 242.787 226.105L264.401 247.292L283.864 268.672C287.665 272.848 289.433 278.487 288.697 284.085L280.824 344.037C280.436 346.997 277.903 349.181 274.916 349.158C274.073 349.151 273.107 349.074 272 348.901C264.976 347.808 265.495 341.129 265.495 341.129L266.933 285.057L226.06 260.417C226.06 260.417 207.455 249.814 209.305 221.557" fill="#D9EFFB"/>
<path d="M227.989 122.168C204.047 132.096 204.527 146.248 204.527 146.248C204.527 146.248 209.217 198.133 207.616 232.784C206.947 247.27 284.579 248.376 273.001 209.729C259.352 164.162 264.467 127.273 258.077 121.71C251.687 116.146 234.183 119.601 227.989 122.168" fill="#5F92D3"/>
<path d="M220.287 134.717C221.539 139.578 227.908 142.141 234.512 140.438C241.117 138.738 245.456 133.418 244.203 128.557C242.951 123.696 236.581 121.134 229.977 122.834C223.373 124.537 219.033 129.857 220.287 134.717" fill="#FAB6A9"/>
<path d="M234.075 123.451C238.52 123.451 242.239 125.52 243.095 128.843C243.607 130.832 243.012 133.005 241.416 134.96C239.74 137.016 237.187 138.568 234.227 139.331C228.244 140.867 222.488 138.675 221.395 134.433C220.883 132.443 221.477 130.271 223.073 128.316C224.749 126.259 227.303 124.707 230.263 123.943C231.56 123.609 232.845 123.451 234.075 123.451ZM230.469 142.105C231.873 142.105 233.331 141.925 234.797 141.548C238.227 140.664 241.207 138.839 243.191 136.407C245.257 133.875 246.011 130.985 245.311 128.272C243.905 122.807 236.896 119.868 229.692 121.727C226.263 122.609 223.283 124.437 221.299 126.869C219.232 129.403 218.479 132.291 219.179 135.003C220.299 139.356 224.973 142.105 230.469 142.105Z" fill="white"/>
<path d="M237.588 121.089C237.588 121.089 237.383 122.049 237.797 129.636C237.927 132.021 229.576 134.249 227.416 132.091C225.257 129.932 226.121 127.687 225.603 119.569C225.084 111.452 237.588 121.089 237.588 121.089Z" fill="#FAB6A9"/>
<path d="M225.603 119.569C225.603 119.569 227.66 127.096 237.799 129.983L237.644 123.143L225.603 119.569" fill="#EB8B8A"/>
<path d="M219.181 100.447C216.632 110.301 222.556 120.354 232.409 122.902C242.264 125.449 252.317 119.527 254.865 109.672C257.413 99.8185 251.491 89.7652 241.636 87.2158C231.783 84.6692 221.728 90.5932 219.181 100.447Z" fill="#FAB6A9"/>
<path d="M232.79 105.736C232.79 105.736 242.937 110.083 249.964 110.132C256.989 110.183 255.44 104.299 255.44 104.299L234.584 101.284L232.79 105.736" fill="#EB8B8A"/>
<path d="M252.057 106.881C252.057 106.881 243.219 103.129 235.465 104.693C233.641 105.061 231.952 106.037 230.779 107.478C230.395 107.949 229.909 108.38 229.36 108.504C227.985 108.816 225.735 103.11 223.061 102.981C220.389 102.85 218.605 104.742 220.797 108.252C222.988 111.76 222.247 115.686 221.24 116.249C220.231 116.812 209.536 108.621 218.969 89.9331C228.404 71.2451 252.367 81.3105 256.095 85.0985C256.095 85.0985 260.02 88.5185 263.213 85.4745C263.213 85.4745 266.793 112.285 252.057 106.881" fill="#EE1696"/>
<path d="M217.959 184.156V198.175C217.959 199.781 218.633 201.313 219.821 202.396L248.623 228.655L245.351 233.659L207.315 206.073C205.54 204.785 204.396 202.805 204.167 200.624L201.595 176.173L217.959 184.156Z" fill="#FAB6A9"/>
<path d="M206.555 139.237C206.555 139.237 197.816 152.379 194.561 186.967C194.561 186.967 209.487 191.793 217.959 189.052C226.428 186.313 206.555 139.237 206.555 139.237Z" fill="#5F92D3"/>
<path d="M219.553 155.852C219.553 155.852 222.973 174.16 223.168 182.764C223.221 185.128 221.777 187.262 219.553 188.066V155.852Z" fill="#4067B1"/>
<path d="M227.025 246.884L233.392 246.044L274.483 222.32C275.8 221.558 278.101 221.654 279.623 222.533L308.74 239.337L312.588 238.828V242.661H312.584C312.611 243.165 312.323 243.652 311.701 244.01L265.132 270.896C263.815 271.658 261.515 271.561 259.993 270.684L228.283 252.382C227.427 251.888 227.001 251.252 227.025 250.654V246.884Z" fill="#263C7A"/>
<path d="M257.901 231.893L260.82 230.208H292.916L308.74 239.337L312.588 238.828V242.661H312.584C312.611 243.165 312.323 243.652 311.701 244.01L265.132 270.896C264.436 271.298 263.465 271.458 262.48 271.393L257.901 231.893" fill="#4067B1"/>
<path d="M310.88 239.053L312.588 238.828V242.661H312.584C312.611 243.165 312.323 243.652 311.701 244.011L310.88 244.484V239.053" fill="#5F92D3"/>
<path d="M264.664 271.115C263.415 271.588 261.631 271.485 260.297 270.843V264.325H264.664V271.115Z" fill="#2E4B8D"/>
<path d="M265.132 267.066L311.701 240.181C313.019 239.421 312.853 238.092 311.332 237.214L279.623 218.912C278.101 218.034 275.8 217.939 274.483 218.7L227.913 245.585C226.596 246.345 226.761 247.675 228.283 248.552L259.993 266.854C261.515 267.732 263.815 267.828 265.132 267.066" fill="white"/>
<path d="M265.92 262.993L304.641 240.636C305.737 240.004 305.6 238.899 304.335 238.168L287.343 228.613C286.077 227.883 284.164 227.804 283.069 228.437L244.348 250.792C243.252 251.425 243.389 252.529 244.655 253.26L261.647 262.816C262.911 263.545 264.825 263.624 265.92 262.993" fill="#D9EFFB"/>
<path d="M277.821 218.029L278.303 221.243C278.715 223.981 278.643 226.769 278.093 229.483L277.52 232.313C277.196 233.911 275.933 235.149 274.331 235.44C273.077 235.668 271.896 234.789 271.753 233.524L270.985 226.656C270.985 226.656 269.228 228.957 268.379 228.957C267.531 228.957 269.329 222.079 271.247 218.185C273.167 214.292 277.821 218.029 277.821 218.029" fill="#FAB6A9"/>
<path d="M262.036 166.961L267.032 176.85C268.215 179.189 268.909 181.744 269.077 184.358L271.247 218.185L277.821 218.029L280.805 180.041C280.897 178.868 280.841 177.688 280.635 176.529L277.228 157.265L262.036 166.961" fill="#FAB6A9"/>
<path d="M266.709 269.65L270.615 264.552L311.677 240.777C312.993 240.016 314.059 237.974 314.057 236.217L314.02 202.6L316.383 199.517L314.164 198.232L314.161 198.234C313.737 197.961 313.172 197.969 312.551 198.328L266.016 225.272C264.699 226.033 263.633 228.074 263.635 229.83L263.675 266.444C263.676 267.433 264.015 268.118 264.545 268.396L266.709 269.65" fill="#263C7A"/>
<path d="M295.107 250.373L298.023 248.682L314.037 220.868L314.02 202.6L316.383 199.517L314.164 198.232L314.161 198.234C313.737 197.961 313.172 197.969 312.551 198.328L266.016 225.272C265.32 225.673 264.696 226.436 264.261 227.322L295.107 250.373" fill="#4067B1"/>
<path d="M315.335 200.884L316.383 199.517L314.164 198.232L314.161 198.235C313.737 197.961 313.172 197.969 312.551 198.328L311.732 198.803L315.335 200.884" fill="#5F92D3"/>
<path d="M265.592 225.569C264.558 226.414 263.757 228.013 263.648 229.489L268.196 232.114L270.375 228.329L265.592 225.569" fill="#2E4B8D"/>
<path d="M268.232 226.554L314.767 199.61C316.084 198.849 317.152 199.656 317.155 201.412L317.193 238.024C317.196 239.78 316.132 241.822 314.815 242.585L268.279 269.528C266.963 270.289 265.893 269.484 265.891 267.726L265.852 231.114C265.851 229.358 266.915 227.317 268.232 226.554Z" fill="#5F92D3"/>
<path d="M245.351 233.659L246.096 235.204C246.955 236.983 248.304 238.479 249.985 239.515L254.608 242.364C256.045 243.251 257.867 243.324 259.327 242.473L259.484 242.379C260.953 241.457 261.085 239.348 259.877 238.105L255.047 233.14C255.047 233.14 257.76 235.219 258.52 234.383C259.077 233.768 255.889 230.773 253.441 230.675C250.992 230.577 248.623 228.655 248.623 228.655L245.351 233.659" fill="#FAB6A9"/>
<path d="M257.599 121.637C257.599 121.637 275.305 140.905 282.449 158.581C282.449 158.581 276.395 169.491 261.572 173.772C246.749 178.052 257.599 121.637 257.599 121.637Z" fill="#5F92D3"/>
<path d="M264.907 172.628L262.036 144.902L268.799 170.88C267.593 171.506 266.289 172.092 264.907 172.628" fill="#4067B1"/>
<path d="M244.336 117.749L249.093 116.441C249.093 116.441 246.821 120.016 243.505 120.927C240.188 121.837 239.673 119.031 239.673 119.031L244.336 117.749" fill="white"/>
<path d="M334.647 51.4078C340.393 51.4078 345.067 56.0812 345.067 61.8265C345.067 67.5732 340.393 72.2465 334.647 72.2465C328.901 72.2465 324.228 67.5732 324.228 61.8265C324.228 56.0812 328.901 51.4078 334.647 51.4078ZM334.647 75.1559C341.996 75.1559 347.975 69.1759 347.975 61.8265C347.975 54.4785 341.996 48.4985 334.647 48.4985C327.299 48.4985 321.319 54.4785 321.319 61.8265C321.319 69.1759 327.299 75.1559 334.647 75.1559Z" fill="#D9EFFB"/>
<path d="M65.1986 155.205C68.8066 155.205 71.7426 158.14 71.7426 161.748C71.7426 165.354 68.8066 168.289 65.1986 168.289C61.592 168.289 58.6573 165.354 58.6573 161.748C58.6573 158.14 61.592 155.205 65.1986 155.205ZM65.1986 171.198C70.4093 171.198 74.6506 166.958 74.6506 161.748C74.6506 156.537 70.4093 152.296 65.1986 152.296C59.988 152.296 55.748 156.537 55.748 161.748C55.748 166.958 59.988 171.198 65.1986 171.198Z" fill="#5F92D3"/>
<path d="M377.608 330.225L373.76 338.053L365.932 334.206L369.78 326.379L377.608 330.225ZM375.085 341.947L381.501 328.9L368.455 322.485L362.039 335.532L375.085 341.947" fill="#5F92D3"/>
<path d="M188.24 127.992L184.392 135.821L176.564 131.973L180.41 124.144L188.24 127.992ZM185.717 139.714L192.132 126.665L179.085 120.25L172.671 133.298L185.717 139.714Z" fill="#5F92D3"/>
<path d="M389.657 268.379L395.656 271.328L398.604 265.328L392.607 262.38L389.657 268.379Z" fill="#5F92D3"/>
<path d="M157.52 68.9159L193.172 48.3332C193.877 47.9265 194.516 47.9106 195.016 48.1852L195.013 48.1625L198.471 50.1599C198.471 50.1599 196.94 50.7172 196.04 51.0492V77.0106C196.04 79.1226 194.756 81.5772 193.172 82.4919L159.096 102.165V105.212L155.603 103.2L155.621 103.193C155.031 102.832 154.652 102.044 154.652 100.907V74.3972C154.652 72.2839 155.936 69.8306 157.52 68.9159Z" fill="#D1078D"/>
<path d="M161.043 105.105L196.693 84.5212C198.278 83.6065 199.562 81.1532 199.562 79.0412V52.5318C199.562 50.4198 198.278 49.4478 196.693 50.3625L161.043 70.9465C159.459 71.8612 158.174 74.3145 158.174 76.4278V102.937C158.174 105.049 159.459 106.02 161.043 105.105Z" fill="#EE1696"/>
<path d="M184.704 75.3852C184.704 76.9199 185.781 77.5425 187.111 76.7745C188.439 76.0078 189.516 74.1425 189.516 72.6078C189.516 71.0745 188.439 70.4532 187.111 71.2199C185.781 71.9879 184.704 73.8519 184.704 75.3852Z" fill="white"/>
<path d="M177.417 79.5945C177.417 81.1278 178.495 81.7492 179.823 80.9825C181.151 80.2159 182.229 78.3492 182.229 76.8159C182.229 75.2812 181.151 74.6612 179.823 75.4278C178.495 76.1945 177.417 78.0585 177.417 79.5945Z" fill="white"/>
<path d="M170.131 83.8012C170.131 85.3345 171.207 85.9559 172.536 85.1892C173.864 84.4225 174.941 82.5572 174.941 81.0225C174.941 79.4892 173.864 78.8678 172.536 79.6345C171.207 80.4012 170.131 82.2678 170.131 83.8012Z" fill="white"/>
<path d="M403.973 294.454L438.948 274.262C439.64 273.862 440.266 273.846 440.756 274.116L440.753 274.094L444.146 276.053C444.146 276.053 442.644 276.602 441.762 276.925V302.394C441.762 304.468 440.502 306.876 438.948 307.772L405.518 327.073V330.061L402.09 328.088L402.109 328.081C401.53 327.728 401.158 326.952 401.158 325.837V299.83C401.158 297.76 402.418 295.352 403.973 294.454" fill="#5F92D3"/>
<path d="M407.428 329.956L442.403 309.764C443.957 308.866 445.217 306.458 445.217 304.386V278.381C445.217 276.309 443.957 275.356 442.403 276.253L407.428 296.445C405.873 297.342 404.613 299.75 404.613 301.824V327.829C404.613 329.901 405.873 330.854 407.428 329.956Z" fill="#D9EFFB"/>
<path d="M430.641 300.802C430.641 302.306 431.697 302.917 433.001 302.164C434.304 301.412 435.361 299.582 435.361 298.077C435.361 296.572 434.304 295.962 433.001 296.716C431.697 297.466 430.641 299.297 430.641 300.802Z" fill="white"/>
<path d="M423.492 304.929C423.492 306.435 424.548 307.045 425.852 306.292C427.156 305.54 428.212 303.709 428.212 302.205C428.212 300.7 427.156 300.089 425.852 300.841C424.548 301.595 423.492 303.425 423.492 304.929Z" fill="white"/>
<path d="M416.344 309.056C416.344 310.561 417.4 311.172 418.703 310.42C420.007 309.666 421.062 307.836 421.062 306.332C421.062 304.828 420.007 304.216 418.703 304.969C417.4 305.721 416.344 307.552 416.344 309.056Z" fill="white"/>
</svg>
