<svg width="120" height="120" viewBox="0 0 120 120" fill="none" xmlns="http://www.w3.org/2000/svg">
<g filter="url(#filter0_d)">
<path d="M54.7305 33.2171C55.1266 33.6719 55.4879 34.2224 55.6585 34.843C55.9613 35.9422 55.8763 36.9993 55.7234 37.7687C55.6465 38.1556 55.5511 38.4763 55.4742 38.7019C55.4357 38.815 55.4017 38.9047 55.3767 38.9675C55.3642 38.999 55.3539 39.0237 55.3464 39.0414L55.3373 39.0625L55.3369 39.0634C55.3214 39.101 55.2988 39.1535 55.27 39.2204C54.6537 40.6501 51.2182 48.6206 55.1201 56.3425C57.3275 60.3705 60.3257 62.3178 61.4203 63.0287C61.469 63.0603 61.514 63.0895 61.5549 63.1163C62.1191 63.446 62.5807 63.4743 62.8864 63.4359C63.044 63.4161 63.1664 63.3777 63.2456 63.3466C63.2851 63.331 63.3134 63.3175 63.3293 63.3094C63.3341 63.3069 63.3377 63.305 63.3402 63.3037C63.341 63.3032 63.3418 63.3028 63.3424 63.3024C63.3427 63.3023 63.3429 63.3022 63.3431 63.302L63.3432 63.3019L63.3434 63.3018L63.3549 63.2947L54.7305 33.2171ZM54.7305 33.2171C63.7756 36.1849 69.0973 43.6629 69.4388 51.9267L69.4388 51.9268C69.6065 55.9747 68.0825 58.8114 66.5198 60.6418C65.7363 61.5596 64.9422 62.2247 64.3457 62.6593C64.0478 62.8764 63.8 63.0353 63.6288 63.1388C63.5433 63.1906 63.4769 63.2284 63.4331 63.2528C63.4112 63.2649 63.395 63.2737 63.3848 63.2792L63.3741 63.2848L63.3728 63.2855L63.3725 63.2857L63.3723 63.2858L54.7305 33.2171Z" fill="#88B03C" stroke="#638B0B"/>
<path d="M89.5024 57.9934C84.343 56.2331 79.1345 56.7367 74.77 58.9377C72.6745 59.9945 70.7693 61.4459 69.1584 63.226C66.7064 65.9388 66.0838 68.7048 66.0649 70.7876C66.0554 71.8329 66.1982 72.709 66.3426 73.3212C66.4147 73.6271 66.4869 73.8662 66.5402 74.0264C66.5668 74.1066 66.5887 74.1669 66.6034 74.2059C66.6107 74.2254 66.6162 74.2396 66.6197 74.2483L66.6232 74.2571L66.6234 74.2575L66.6235 74.258L66.6237 74.2582L66.6237 74.2584L66.6314 74.2768L66.6354 74.2893L66.6384 74.2967C66.6432 74.3081 66.6528 74.3296 66.6685 74.3583C66.6999 74.4158 66.7544 74.5003 66.841 74.5905C67.0065 74.7631 67.3103 74.9797 67.8575 75.0493C67.9032 75.0526 67.9535 75.0564 68.0083 75.0606C69.1572 75.1479 72.2617 75.3838 76.0407 73.769C83.0861 70.499 85.4135 63.1827 85.8384 61.8467C85.8589 61.7824 85.8749 61.732 85.8869 61.6965L85.8932 61.6768C85.8985 61.6603 85.9061 61.6374 85.916 61.6087C85.936 61.5512 85.9655 61.4704 86.0055 61.371C86.0855 61.1725 86.2083 60.8984 86.3818 60.5883C86.7268 59.9716 87.284 59.1917 88.1245 58.5893L89.5024 57.9934ZM89.5024 57.9934C89.03 58.105 88.5435 58.2888 88.1247 58.5892L89.5024 57.9934Z" fill="#88B03C" stroke="#638B0B"/>
<path d="M48.8791 65.6371C48.8702 65.5944 48.8631 65.5603 48.8575 65.5353L48.8542 65.5194C48.8513 65.5058 48.8471 65.4873 48.8417 65.4642C48.8307 65.4182 48.8143 65.354 48.7914 65.2754C48.7455 65.1184 48.6729 64.9018 48.5639 64.6556C48.3478 64.1673 47.9783 63.539 47.3691 63.0386C47.1712 62.8759 46.9492 62.7513 46.721 62.6558C52.4679 61.1122 57.8717 63.1088 61.0573 67.2544L61.0573 67.2545C62.6557 69.3334 62.9051 71.3982 62.7607 72.9462C62.6883 73.7236 62.516 74.3714 62.3627 74.8229C62.2861 75.0483 62.2146 75.2238 62.1633 75.3408C62.1377 75.3993 62.1171 75.4431 62.1036 75.4711C62.0969 75.4851 62.0919 75.4951 62.0888 75.5011L62.0861 75.5066L62.0859 75.507L62.0858 75.507L62.0857 75.5073L62.0855 75.5076L62.0765 75.5248L62.072 75.5355C62.0718 75.5358 62.0717 75.5361 62.0715 75.5364C62.0684 75.5424 62.0611 75.5556 62.049 75.574C62.0247 75.611 61.9822 75.667 61.9169 75.7266C61.7931 75.8395 61.5694 75.9821 61.1819 76.015C61.1545 76.0161 61.1248 76.0173 61.0931 76.0186C60.251 76.0531 57.92 76.1488 55.2208 74.8257C50.2434 72.1747 49.0851 66.6242 48.8791 65.6371Z" fill="#88B03C" stroke="#638B0B"/>
</g>
<g filter="url(#filter1_d)">
<path d="M31.0096 81.1107L37.2628 91.9417L40.1044 90.3011L42.2125 91.3776L44.3996 91.9583C49.3987 93.2601 54.1264 94.4892 60.0678 95.7311C64.3442 96.6346 67.9678 94.4066 69.7174 93.0227C70.5439 92.3606 71.4191 91.7615 72.3356 91.2307L91.4491 80.1955C91.9096 79.9316 92.3122 79.5775 92.6328 79.1545C92.9534 78.7315 93.1855 78.2482 93.3152 77.7335C93.4323 77.2623 93.4525 76.7723 93.3744 76.2931C93.2963 75.8139 93.1217 75.3556 92.8611 74.946C92.3495 74.1506 91.5511 73.5828 90.6319 73.3606C89.7126 73.1383 88.7431 73.2787 87.9246 73.7525L73.2518 82.2238C72.7028 81.5493 71.9326 81.091 71.0779 80.9305L56.7613 78.2038C55.5073 77.9455 54.2861 77.5479 53.1206 77.0182C43.6715 72.9084 34.5456 79.0692 34.1951 79.2715L31.0096 81.1107Z" fill="#E4B89D"/>
<path d="M73.2518 82.2238C72.7028 81.5493 71.9326 81.091 71.0779 80.9305L56.7613 78.2038C55.5073 77.9455 54.2861 77.5479 53.1206 77.0182C43.6715 72.9084 34.5456 79.0692 34.1951 79.2715L31.0096 81.1107L37.2628 91.9417L40.1044 90.3011L42.2125 91.3776L44.3996 91.9583C49.3987 93.2601 54.1264 94.4892 60.0678 95.7311C64.3442 96.6346 67.9678 94.4066 69.7174 93.0227C70.5439 92.3606 71.4191 91.7615 72.3356 91.2307L91.4491 80.1955C91.9096 79.9316 92.3122 79.5775 92.6328 79.1545C92.9534 78.7315 93.1855 78.2482 93.3152 77.7335C93.4323 77.2623 93.4525 76.7723 93.3744 76.2931C93.2963 75.8139 93.1217 75.3556 92.8611 74.946C92.3495 74.1506 91.5511 73.5828 90.6319 73.3606C89.7126 73.1383 88.7431 73.2787 87.9246 73.7525L73.2518 82.2238ZM73.2518 82.2238L73.8973 83.5332C74.0443 84.076 74.065 84.6453 73.9576 85.1973C73.8709 85.6708 73.6905 86.1221 73.4272 86.525C73.1639 86.9279 72.8229 87.2743 72.4241 87.5438C72.3413 87.5916 72.2648 87.6358 72.182 87.6836C71.4165 88.125 70.5176 88.276 69.6498 88.1091L54.9563 85.3622C54.7698 85.3202 54.607 85.2071 54.5024 85.0471C54.3977 84.8871 54.3595 84.6926 54.3958 84.5049" stroke="#BE9A7F"/>
</g>
<path d="M14.7396 57.524C16.3185 57.5765 17.1938 58.559 17.3655 60.4713C17.4551 61.4699 17.3119 62.3806 16.936 63.2034L14.1453 63.432L13.8878 61.8157L15.1476 61.7125C15.3071 61.6994 15.4221 61.6686 15.4927 61.62C15.5633 61.5714 15.6277 61.4538 15.6859 61.2671C15.7335 61.0812 15.7406 60.8024 15.7072 60.4306C15.6729 60.0481 15.5365 59.781 15.298 59.6293C15.0488 59.4785 14.6691 59.424 14.1588 59.4658L7.85994 59.9819L7.90771 61.2302L6.55225 61.3412L6.17754 57.166L7.46921 57.0602L7.56425 57.5821C7.62379 57.8876 7.8024 58.0282 8.10007 58.0038L13.0594 57.5974C13.8143 57.5356 14.3743 57.5111 14.7396 57.524Z" fill="black"/>
<path d="M10.2281 47.2241L16.1394 47.919C16.3089 47.939 16.4289 47.9262 16.4992 47.8808C16.571 47.8248 16.6217 47.7234 16.6513 47.5765L16.7485 47.0724L18.0198 47.2219L17.6948 49.7451L16.7732 49.6367L16.7512 49.6824C17.4458 50.3011 17.7339 51.0706 17.6153 51.991C17.4764 53.0701 17.0292 53.8283 16.2739 54.2658C15.5185 54.7032 14.5423 54.8516 13.3452 54.7108C11.9045 54.5414 10.8265 54.0603 10.1113 53.2674C9.3961 52.4745 9.12841 51.3798 9.30824 49.9834C9.42403 49.0841 9.73067 48.1644 10.2281 47.2241ZM15.1396 49.6702L11.024 49.1863C10.8481 49.4663 10.7268 49.8655 10.6601 50.3839C10.5688 51.0927 10.7887 51.6395 11.3199 52.0241C11.8511 52.4087 12.5881 52.6565 13.531 52.7673C15.2472 52.9691 16.1761 52.5199 16.3178 51.4196C16.3777 50.9541 16.289 50.5571 16.0517 50.2285C15.8039 49.8986 15.4998 49.7125 15.1396 49.6702Z" fill="black"/>
<path d="M11.9483 40.9866L18.3776 42.9417L18.7117 42.0904L19.9363 42.4628L18.733 46.0756L17.5696 45.7218L17.6905 45.2069C17.7577 44.9041 17.6433 44.7077 17.3473 44.6178L13.0917 43.3237C12.9182 43.2709 12.7907 43.2656 12.7093 43.3077C12.6312 43.3397 12.5686 43.4265 12.5214 43.5682L12.3138 44.0902L11.0433 43.7038L11.9483 40.9866ZM9.99474 42.4989C9.70965 42.6463 9.40382 42.6703 9.07725 42.571C8.75068 42.4717 8.51563 42.2832 8.37211 42.0055C8.21838 41.7247 8.19881 41.4123 8.31342 41.0682C8.42802 40.7241 8.63297 40.4799 8.92827 40.3357C9.21674 40.1782 9.52426 40.1491 9.85082 40.2484C10.1774 40.3477 10.4108 40.5413 10.5509 40.8291C10.6842 41.1037 10.6936 41.413 10.579 41.7571C10.4644 42.1012 10.2696 42.3485 9.99474 42.4989Z" fill="black"/>
<path d="M16.0555 32.6535L17.6901 29.6996L18.804 30.2623L18.5924 30.7107C18.5081 30.907 18.5527 31.0907 18.726 31.2619L23.4247 35.9466L22.2394 38.0885L15.4711 37.1769C15.312 37.1562 15.1931 37.1619 15.1145 37.1938C15.0411 37.2164 14.9661 37.286 14.8894 37.4025L14.6362 37.7941L13.5223 37.2313L15.3428 33.9414L16.4852 34.5186L16.0555 35.3942L21.5519 36.326L21.5674 36.298L17.6436 32.5243L17.198 33.2307L16.0555 32.6535Z" fill="black"/>
<path d="M21.0057 26.1078L26.385 30.1353L27.0018 29.4589L28.0264 30.2261L25.6118 33.1706L24.6383 32.4418L24.9347 32.0048C25.1053 31.7464 25.0667 31.5245 24.8191 31.3391L21.2585 28.6733C21.1133 28.5646 20.9948 28.5158 20.903 28.527C20.818 28.5298 20.7281 28.589 20.6334 28.7045L20.2527 29.1183L19.1896 28.3224L21.0057 26.1078ZM18.6259 26.842C18.3045 26.881 18.0072 26.7982 17.734 26.5936C17.4607 26.389 17.3055 26.133 17.2682 25.8255C17.2224 25.5117 17.3145 25.2145 17.5444 24.9341C17.7744 24.6537 18.0543 24.4972 18.3842 24.4646C18.7123 24.4174 19.013 24.4961 19.2863 24.7007C19.5595 24.9052 19.7114 25.1654 19.7419 25.4811C19.7706 25.7822 19.67 26.0729 19.44 26.3533C19.2101 26.6338 18.9387 26.7967 18.6259 26.842Z" fill="black"/>
<path d="M29.1834 26.8037L23.8689 21.1053C23.7525 20.9805 23.6482 20.9154 23.5558 20.9101C23.4715 20.8979 23.3689 20.9363 23.2479 21.0253L22.7997 21.3649L21.894 20.3938L24.0624 18.5474L28.7876 23.6139C29.1979 23.1946 29.464 22.73 29.586 22.2203C29.708 21.7105 29.659 21.2205 29.4389 20.7501C29.3905 20.6514 29.3445 20.5786 29.3008 20.5318C29.1771 20.3992 29.0381 20.3986 28.8838 20.5299L28.3991 20.9007L27.5479 19.988L30.0696 17.8408L30.9535 18.7886L30.3906 19.3099C31.0271 20.1955 31.2554 21.1277 31.0755 22.1066L34.19 23.1494L34.9658 22.5518L35.8389 23.4878L34.0603 25.0023L30.4017 23.751C30.1992 24.0494 29.974 24.3391 29.7261 24.6202L30.9374 25.919L30.9496 25.9086L31.6767 25.3525L32.5497 26.2885L29.6504 28.7573L28.821 27.868L29.1903 27.4906C29.2976 27.3713 29.3578 27.264 29.371 27.1688C29.3769 27.0658 29.3144 26.9441 29.1834 26.8037Z" fill="black"/>
<path d="M46.0631 16.8294C46.5196 18.3343 45.8555 19.4408 44.0709 20.1491C43.139 20.5189 42.2169 20.644 41.3046 20.5243L40.1884 17.9564L41.6607 17.2517L42.1646 18.4109C42.2283 18.5577 42.2949 18.6574 42.3644 18.7101C42.4338 18.7629 42.5677 18.79 42.766 18.7916C42.96 18.7834 43.2306 18.7105 43.5776 18.5728C43.9345 18.4311 44.1476 18.2261 44.2169 17.9577C44.282 17.6795 44.2125 17.3057 44.0084 16.8361L41.489 11.04L40.3035 11.4417L39.7613 10.1944L43.6577 8.6481L44.1743 9.83667L43.7027 10.0755C43.4279 10.2189 43.3501 10.4276 43.4692 10.7015L45.4528 15.265C45.7547 15.9596 45.9581 16.481 46.0631 16.8294Z" fill="black"/>
<path d="M50.3622 9.86609L51.9128 16.4048L52.8152 16.2585L53.1106 17.5039L49.3888 18.3097L49.1082 17.1265L49.6132 16.9681C49.9082 16.8715 50.0199 16.6727 49.9486 16.3717L48.9222 12.0438C48.8804 11.8673 48.8208 11.7547 48.7435 11.706C48.6766 11.655 48.5702 11.6453 48.4242 11.6769L47.8695 11.7643L47.5631 10.4721L50.3622 9.86609ZM48.0744 8.95381C47.8038 8.78326 47.6291 8.53192 47.5503 8.19979C47.4716 7.86767 47.5158 7.56893 47.6831 7.30358C47.8478 7.02785 48.1075 6.85161 48.4619 6.77487C48.8164 6.69812 49.1301 6.75022 49.4032 6.93115C49.6842 7.09945 49.8641 7.34966 49.9429 7.68179C50.0217 8.01391 49.9722 8.31378 49.7945 8.58139C49.6248 8.83636 49.3628 9.00222 49.0083 9.07897C48.6538 9.15571 48.3425 9.11399 48.0744 8.95381Z" fill="black"/>
<path d="M59.8383 8.99024L63.2113 8.84652L63.2694 10.0932L62.7754 10.1462C62.5632 10.1766 62.4253 10.3106 62.3617 10.5482L60.5972 17.0131L58.1514 17.1174L55.6165 10.8516C55.5563 10.7047 55.493 10.606 55.4265 10.5555C55.3708 10.5045 55.2734 10.4766 55.1343 10.4718L54.6692 10.4596L54.6111 9.21298L58.3677 9.05291L58.4273 10.3315L57.4545 10.421L59.3464 15.6091L59.3783 15.6078L60.7315 10.2814L59.898 10.2689L59.8383 8.99024Z" fill="black"/>
<path d="M72.5418 10.7058L71.4843 16.5631C71.454 16.7311 71.4594 16.8509 71.5007 16.9225C71.5525 16.9959 71.6511 17.05 71.7965 17.0848L72.296 17.1996L72.0686 18.4592L69.5585 18.0454L69.7233 17.1322L69.6788 17.1086C69.0161 17.7777 68.227 18.0367 67.3113 17.8858C66.2378 17.7088 65.5048 17.2367 65.1123 16.4694C64.7198 15.7021 64.6306 14.7253 64.8447 13.5392C65.1025 12.1116 65.6507 11.0562 66.4894 10.3729C67.328 9.68964 68.442 9.46251 69.8312 9.69151C70.7258 9.83898 71.6293 10.1771 72.5418 10.7058ZM69.7894 15.5055L70.5257 11.4274C70.2557 11.2424 69.8628 11.1073 69.3471 11.0223C68.6419 10.9061 68.0803 11.1054 67.6622 11.6202C67.2442 12.1349 66.9508 12.8595 66.7821 13.7937C66.4751 15.4942 66.8689 16.4347 67.9634 16.6151C68.4265 16.6914 68.83 16.6174 69.174 16.3931C69.5199 16.1582 69.725 15.8624 69.7894 15.5055Z" fill="black"/>
<path d="M80.0111 19.5984L86.1815 14.5302L85.3549 13.9521L86.0377 12.8506L89.2264 14.6554L87.2026 24.1097L87.2165 24.1175L87.9849 24.6076L87.2683 25.7635L83.6758 23.7301L84.3587 22.6286L84.9131 22.8873C85.0822 22.9585 85.2114 22.9826 85.3008 22.9598C85.3902 22.9369 85.4567 22.8398 85.5002 22.6685L85.7305 21.6598L82.4722 19.8156L81.3126 20.7759L82.1228 21.2896L81.4062 22.4455L78.1897 20.6249L78.8725 19.5234L79.3573 19.7427C79.5635 19.8349 79.7814 19.7868 80.0111 19.5984ZM87.2796 15.611L83.582 18.7537L86.1719 20.2196L87.3214 15.6346L87.2796 15.611Z" fill="black"/>
<path d="M92.016 21.088L92.9613 20.2015L94.8988 22.0877L94.1402 22.7991C95.1906 22.6321 96.0865 22.9094 96.8279 23.6312C97.5769 24.3604 97.7701 25.1433 97.4075 25.98C98.458 25.813 99.35 26.0866 100.084 26.8009C100.634 27.3366 100.887 27.9101 100.843 28.5213C100.806 29.1253 100.45 29.7447 99.7727 30.3795L96.7266 33.2361L97.3451 33.9051L96.4114 34.7807L93.6829 32.1244L94.5699 31.2926L94.9832 31.6281C95.1134 31.7251 95.2248 31.774 95.3173 31.7749C95.4253 31.7759 95.5492 31.7181 95.6891 31.6015L98.105 29.3359C98.5329 28.9346 98.7983 28.5907 98.9013 28.3042C99.0196 28.0179 98.903 27.7037 98.5515 27.3614C98.1999 27.0191 97.8196 26.8571 97.4107 26.8754C97.0094 26.9011 96.6259 27.0855 96.2603 27.4284L93.4593 30.0552L94.0548 30.7019L93.1211 31.5775L90.4155 28.9435L91.3025 28.1117L91.7159 28.4472C91.8461 28.5442 91.9613 28.5968 92.0614 28.6052C92.1694 28.6062 92.2934 28.541 92.4335 28.4097L94.8376 26.155C95.2656 25.7537 95.531 25.4098 95.6339 25.1234C95.7523 24.8371 95.6319 24.5191 95.2727 24.1693C94.9211 23.8271 94.5408 23.6724 94.1317 23.7055C93.7226 23.7385 93.3508 23.9119 93.0163 24.2256L90.1919 26.8743L90.776 27.5099L89.8423 28.3855L87.1367 25.7515L88.0237 24.9196L88.4371 25.2551C88.5673 25.3521 88.6824 25.4048 88.7826 25.4131C88.8906 25.4141 89.0146 25.3489 89.1547 25.2176L89.1661 25.2288L92.3873 22.2079C92.5195 22.0839 92.5861 21.9777 92.5869 21.8892C92.6032 21.801 92.5617 21.7011 92.4624 21.5896L92.016 21.088Z" fill="black"/>
<path d="M97.527 34.4345L101.376 32.2379C101.525 32.1533 101.61 32.068 101.631 31.9821C101.668 31.8998 101.651 31.7927 101.581 31.6608L101.267 31.0672L102.392 30.4249L103.826 32.7178L102.783 33.3126C103.246 33.2692 103.701 33.3533 104.148 33.5648C104.603 33.7711 104.97 34.0959 105.247 34.5391C105.529 34.9913 105.696 35.4791 105.747 36.0025L103.676 37.184L102.79 35.9777L103.429 35.613C103.615 35.5072 103.702 35.3959 103.692 35.279C103.676 35.1531 103.623 35.0178 103.532 34.8731C103.306 34.5112 102.985 34.2894 102.57 34.2075C102.169 34.1294 101.765 34.2067 101.357 34.4393L98.1332 36.2791L98.8153 37.4912L97.7175 38.1177L95.4448 34.4815L96.501 33.8788L96.8225 34.3027C96.9258 34.4279 97.0251 34.5062 97.1202 34.5378C97.2247 34.5641 97.3603 34.5297 97.527 34.4345Z" fill="black"/>
<path d="M103.567 48.8743L102.366 49.2679L101.49 46.8283L102.478 46.5044C101.489 46.2114 100.802 45.5277 100.417 44.4535C99.858 42.8973 100.455 41.8319 102.209 41.2573L105.721 40.1063C105.995 40.0166 106.092 39.8446 106.012 39.5903L105.869 39.0984L107.116 38.6899L108.067 41.3403L103.248 42.9198C102.71 43.0958 102.332 43.304 102.112 43.5443C101.893 43.7846 101.868 44.1406 102.037 44.6125C102.206 45.0844 102.488 45.4127 102.883 45.5974C103.282 45.7923 103.689 45.8216 104.104 45.6854L107.312 44.634C107.475 44.5809 107.575 44.5142 107.615 44.4341C107.667 44.3606 107.674 44.252 107.633 44.1081L107.491 43.6162L108.738 43.2076L109.689 45.8581L103.729 47.8113C103.567 47.8644 103.464 47.9261 103.421 47.9962C103.389 48.063 103.389 48.175 103.423 48.3323L103.567 48.8743Z" fill="black"/>
<path d="M112.173 50.7112L112.313 51.7416L110.631 51.9516L110.919 54.06L109.563 54.0679L109.297 52.118L105.121 52.6391C104.656 52.6972 104.339 52.8227 104.172 53.0155C104.015 53.2071 103.96 53.4772 104.008 53.826C104.057 54.1853 104.217 54.5308 104.489 54.8624L103.331 55.4905C102.888 55.0083 102.611 54.3603 102.5 53.5465C102.435 53.071 102.444 52.6614 102.526 52.318C102.598 51.9758 102.697 51.7162 102.823 51.5392C102.95 51.3622 103.15 51.2136 103.424 51.0934C103.699 50.9732 103.914 50.8979 104.072 50.8675C104.24 50.8358 104.482 50.8001 104.8 50.7605L109.039 50.2316L108.885 49.106L110.066 49.1199C110.176 49.6114 110.402 49.9648 110.744 50.1801C111.096 50.3941 111.572 50.5712 112.173 50.7112Z" fill="black"/>
<path d="M104.716 58.4132L112.49 58.9392C112.66 58.9507 112.779 58.9267 112.848 58.8672C112.916 58.8183 112.961 58.7198 112.982 58.5716L113.056 58.0153L114.381 58.1049L114.17 60.9451L109.876 60.6546C110.622 61.261 110.959 62.0642 110.885 63.0641C110.825 63.8726 110.544 64.479 110.044 64.8835C109.553 65.2993 108.845 65.4759 107.919 65.4133L103.752 65.1314L103.637 66.0376L102.36 65.9512L102.641 62.1536L103.855 62.2357L103.864 62.7655C103.873 62.9265 103.907 63.0464 103.965 63.1252C104.034 63.2047 104.165 63.2509 104.356 63.2639L107.645 63.4864C108.198 63.5238 108.63 63.4622 108.942 63.3015C109.252 63.1515 109.427 62.8212 109.464 62.3106C109.501 61.8106 109.372 61.3956 109.075 61.0655C108.789 60.7468 108.422 60.5723 107.975 60.542L104.112 60.2807L103.997 61.1869L102.72 61.1005L103.001 57.3029L104.214 57.385L104.223 57.9148C104.232 58.0758 104.266 58.1957 104.325 58.2745C104.394 58.354 104.524 58.4002 104.716 58.4132Z" fill="black"/>
<defs>
<filter id="filter0_d" x="40.5903" y="29.9627" width="58.4097" height="58.597" filterUnits="userSpaceOnUse" color-interpolation-filters="sRGB">
<feFlood flood-opacity="0" result="BackgroundImageFix"/>
<feColorMatrix in="SourceAlpha" type="matrix" values="0 0 0 0 0 0 0 0 0 0 0 0 0 0 0 0 0 0 127 0"/>
<feOffset dy="4"/>
<feGaussianBlur stdDeviation="2"/>
<feColorMatrix type="matrix" values="0 0 0 0 0 0 0 0 0 0 0 0 0 0 0 0 0 0 0.25 0"/>
<feBlend mode="normal" in2="BackgroundImageFix" result="effect1_dropShadow"/>
<feBlend mode="normal" in="SourceGraphic" in2="effect1_dropShadow" result="shape"/>
</filter>
<filter id="filter1_d" x="26.317" y="52.0858" width="73.3521" height="63.5425" filterUnits="userSpaceOnUse" color-interpolation-filters="sRGB">
<feFlood flood-opacity="0" result="BackgroundImageFix"/>
<feColorMatrix in="SourceAlpha" type="matrix" values="0 0 0 0 0 0 0 0 0 0 0 0 0 0 0 0 0 0 127 0"/>
<feOffset dy="4"/>
<feGaussianBlur stdDeviation="2"/>
<feColorMatrix type="matrix" values="0 0 0 0 0 0 0 0 0 0 0 0 0 0 0 0 0 0 0.25 0"/>
<feBlend mode="normal" in2="BackgroundImageFix" result="effect1_dropShadow"/>
<feBlend mode="normal" in="SourceGraphic" in2="effect1_dropShadow" result="shape"/>
</filter>
</defs>
</svg>
