<svg width="500" height="460" viewBox="0 0 500 460" fill="none" xmlns="http://www.w3.org/2000/svg">
<path d="M381.896 418.324C344.838 417.264 299.268 416.64 250.001 416.64C200.731 416.64 155.165 417.264 118.107 418.324C68.4329 380.13 36.5073 320.899 36.5073 254.345C36.5073 139.133 132.089 29.1774 250.001 29.1774C367.908 29.1774 463.493 139.133 463.493 254.345C463.493 260.526 463.217 266.641 462.679 272.682C462.3 272.665 461.929 272.654 461.563 272.654C441.983 272.654 441.594 298.468 425.713 304.262C428.743 290.81 436.785 265.348 428.539 260.243C426.124 258.748 423.684 258.035 421.34 258.035C412.099 258.035 404.395 269.134 406.1 287.225C407.047 297.273 407.133 300.231 404.522 300.231C402.577 300.231 399.134 298.586 393.433 297.01C392.481 296.745 391.653 296.621 390.943 296.621C383.777 296.621 388.347 309.331 394.936 321.556C393.81 321.131 392.638 320.54 391.4 319.704C388.134 317.499 384.386 313.604 379.686 306.633C375.278 300.104 370.901 297.536 367.077 297.536C354.565 297.536 347.978 325.059 365.673 331.441C378.749 336.157 378.168 336.74 377.034 351.7C375.897 366.66 396.727 367.418 396.727 367.418C398.899 367.804 400.877 367.999 402.683 368.027C406.438 372.033 410.063 373.644 413.478 373.644C416.294 373.644 418.969 372.548 421.454 370.79C422.386 370.977 423.369 371.078 424.404 371.096C424.409 371.096 424.417 371.096 424.422 371.096C424.437 371.096 424.45 371.096 424.465 371.096C424.48 371.096 424.493 371.096 424.508 371.096C424.523 371.096 424.535 371.098 424.551 371.098C424.568 371.098 424.584 371.098 424.601 371.098C424.606 371.098 424.616 371.098 424.621 371.098C424.647 371.098 424.672 371.098 424.697 371.098C425.437 371.098 426.205 371.053 427.001 370.962C414.556 388.945 399.321 404.925 381.896 418.324V418.324ZM148.87 176.567C139.199 176.567 131.006 183.693 129.685 193.273C125.54 223.347 119.006 285.713 131.948 309.856C134.948 315.456 140.843 318.893 147.198 318.893H218.131C207.526 315.087 202.964 298.099 201.6 277.112L215.126 215.201C215.424 207.207 212.226 199.486 206.382 194.142C206.622 192.389 206.854 190.737 207.076 189.204C207.238 188.077 207.225 186.974 207.061 185.913C218.061 182.725 221.837 167.662 221.834 158.574C221.834 155.758 221.47 153.515 220.847 152.378C221.023 152.315 242.886 144.435 229.288 125.28C229.288 125.28 228.09 129.844 222.491 129.844C220.882 129.844 218.909 129.467 216.497 128.497C210.862 126.232 203.356 124.317 196.496 124.317C190.967 124.317 185.857 125.562 182.496 128.874C174.557 136.686 168.548 151.179 177.058 162.181C176.921 166.164 179.399 168.642 182.415 169.01L180.821 176.567H148.87V176.567ZM98.4286 241.656C106.582 241.656 113.189 234.071 113.189 224.713C113.189 215.355 106.582 205.98 98.4286 205.98C98.4084 205.98 98.3907 205.98 98.3705 205.98C98.368 205.98 98.3655 205.98 98.3655 205.98C90.2427 206.028 83.6706 215.381 83.6706 224.713C83.6706 234.046 90.2427 241.618 98.3655 241.656C98.368 241.656 98.3679 241.656 98.3679 241.656C98.3881 241.656 98.4084 241.656 98.4286 241.656ZM449.891 327.736C448.722 324.778 447.997 322.596 447.997 320.646C447.997 317.307 450.129 314.658 455.799 310.013C454.097 316.032 452.119 321.95 449.891 327.736ZM185.759 159.327C185.759 159.327 184.645 157.458 183.185 156.215C184.605 157.42 185.698 159.221 185.761 159.324C185.761 159.327 185.761 159.327 185.759 159.327Z" fill="url(#paint0_linear)"/>
<path d="M250.001 434.381C125.737 434.381 25 430.408 25 425.51C25 422.555 61.6942 419.936 118.107 418.325C121.044 420.583 124.045 422.77 127.106 424.879H372.897C375.955 422.77 378.958 420.583 381.896 418.325C438.306 419.936 475 422.555 475 425.51C475 430.408 374.263 434.381 250.001 434.381" fill="#EDF8F9"/>
<path d="M372.897 424.879H127.106C124.045 422.77 121.044 420.582 118.107 418.324C155.165 417.264 200.732 416.64 250.001 416.64C299.269 416.64 344.838 417.264 381.896 418.324C378.958 420.582 375.955 422.77 372.897 424.879Z" fill="url(#paint1_linear)"/>
<path d="M176.583 416.683H166.346V318.797H176.583V416.683Z" fill="#ABC9CD"/>
<path d="M176.583 332.557H166.346V318.797H176.583V332.557Z" fill="#85B3B9"/>
<path d="M215.979 416.718H130.165C126.889 416.718 124.232 419.37 124.232 422.646V425.7H221.912V422.646C221.912 419.37 219.255 416.718 215.979 416.718Z" fill="#ABC9CD"/>
<path d="M147.198 318.894H218.131C192.321 309.627 202.305 222.304 207.076 189.204C208.039 182.533 202.856 176.568 196.117 176.568H148.87C139.199 176.568 131.006 183.693 129.685 193.273C125.54 223.347 119.006 285.713 131.948 309.856C134.948 315.456 140.843 318.894 147.198 318.894" fill="#ABC9CD"/>
<path d="M157.645 75.7219C157.645 48.262 135.383 26 107.923 26C80.4604 26 58.201 48.262 58.201 75.7219C58.201 103.184 80.4604 125.446 107.923 125.446C135.383 125.446 157.645 103.184 157.645 75.7219Z" fill="#D1078D"/>
<path d="M148.519 75.7217C148.519 53.3006 130.344 35.1253 107.923 35.1253C85.4992 35.1253 67.324 53.3006 67.324 75.7217C67.324 98.1453 85.4992 116.321 107.923 116.321C130.344 116.321 148.519 98.1453 148.519 75.7217" fill="#D1EAF0"/>
<path d="M96.3928 89.5728C95.7462 89.5728 95.0997 89.3252 94.6071 88.8327C93.6196 87.8476 93.6196 86.2489 94.6071 85.2613L105.19 74.6758V46.8573C105.19 45.4631 106.319 44.3315 107.716 44.3315C109.112 44.3315 110.241 45.4631 110.241 46.8573V75.7215C110.241 76.3909 109.976 77.0349 109.501 77.5073L98.1784 88.8327C97.6834 89.3252 97.0369 89.5728 96.3928 89.5728" fill="#D1078D"/>
<path d="M113.212 74.9866C113.212 71.7738 110.61 69.1698 107.395 69.1698C104.185 69.1698 101.581 71.7738 101.581 74.9866C101.581 78.1968 104.185 80.8008 107.395 80.8008C110.61 80.8008 113.212 78.1968 113.212 74.9866Z" fill="#213548"/>
<path d="M391.039 121.998H306.182C301.832 121.998 298.304 125.524 298.304 129.876V168.106C298.304 172.458 301.832 175.986 306.182 175.986H312.109V185.23C312.109 186.511 313.627 187.19 314.582 186.329L326.054 175.986H391.039C395.388 175.986 398.914 172.458 398.914 168.106V129.876C398.914 125.524 395.388 121.998 391.039 121.998" fill="#FF2C9C"/>
<path d="M331.449 149.572C331.449 151.486 329.896 153.042 327.979 153.042C326.062 153.042 324.511 151.486 324.511 149.572C324.511 147.655 326.062 146.101 327.979 146.101C329.896 146.101 331.449 147.655 331.449 149.572Z" fill="white"/>
<path d="M352.792 149.572C352.792 151.486 351.238 153.042 349.321 153.042C347.404 153.042 345.851 151.486 345.851 149.572C345.851 147.655 347.404 146.101 349.321 146.101C351.238 146.101 352.792 147.655 352.792 149.572Z" fill="white"/>
<path d="M372.71 149.572C372.71 151.486 371.156 153.042 369.239 153.042C367.325 153.042 365.771 151.486 365.771 149.572C365.771 147.655 367.325 146.101 369.239 146.101C371.156 146.101 372.71 147.655 372.71 149.572Z" fill="white"/>
<path d="M113.189 224.713C113.189 215.355 106.582 205.98 98.4286 205.98C90.2781 205.98 83.6707 215.355 83.6707 224.713C83.6707 234.071 90.2781 241.656 98.4286 241.656C106.582 241.656 113.189 234.071 113.189 224.713Z" fill="#7ABBE9"/>
<path d="M98.3679 241.656C98.3679 241.656 98.368 241.656 98.3655 241.656C98.368 241.656 98.3679 241.656 98.3679 241.656ZM98.3655 205.98C98.3655 205.98 98.368 205.98 98.3705 205.98C98.368 205.98 98.3655 205.98 98.3655 205.98Z" fill="url(#paint2_linear)"/>
<path d="M98.4286 241.656C98.4084 241.656 98.3882 241.656 98.368 241.656C98.368 241.656 98.368 241.656 98.3655 241.656C97.0774 241.648 95.8322 241.434 94.64 241.073C100.952 239.148 105.612 232.563 105.612 224.713C105.612 216.863 100.952 209.021 94.64 206.692C95.8322 206.253 97.0748 205.987 98.3655 205.98C98.3655 205.98 98.368 205.98 98.3705 205.98C98.3908 205.98 98.4084 205.98 98.4286 205.98C106.582 205.98 113.189 215.355 113.189 224.713C113.189 234.071 106.582 241.656 98.4286 241.656Z" fill="#66A3DA"/>
<path d="M81.6071 235.783L84.254 259.733C84.5849 262.726 87.1132 264.994 90.1264 264.994H105.392C108.403 264.994 110.934 262.726 111.264 259.733L113.909 235.783C114.055 234.48 113.032 233.341 111.722 233.341H83.7944C82.4835 233.341 81.4631 234.48 81.6071 235.783Z" fill="#D1EAF0"/>
<path d="M83.7944 236.92H111.722C112.588 236.92 113.287 237.438 113.649 238.147L113.909 235.783C114.055 234.48 113.032 233.341 111.722 233.341H83.7944C82.486 233.341 81.4631 234.48 81.607 235.783L81.8697 238.147C82.2309 237.438 82.9331 236.92 83.7944 236.92Z" fill="#ABC9CD"/>
<path d="M111.721 233.341H102.04C103.349 233.341 104.372 234.48 104.228 235.783L101.581 259.733C101.25 262.726 98.7189 264.994 95.7083 264.994H105.392C108.403 264.994 110.933 262.726 111.264 259.733L113.909 235.783C114.055 234.48 113.032 233.341 111.721 233.341" fill="#ABC9CD"/>
<path d="M234.031 402.233L233.028 409.156L238.294 415.895L251.653 409.355L253.1 403.026L236.473 400.513L234.031 402.233Z" fill="#F0B95D"/>
<path d="M244.811 424.51L246.19 422.803C246.445 422.489 246.917 422.482 247.18 422.79L248.567 424.412C249.125 425.068 249.948 425.442 250.812 425.427L281.846 424.899C282.439 424.293 282.594 423.25 281.899 422.55C277.35 417.961 252.871 410.025 251.653 409.356C250.436 408.686 242.947 414.506 233.028 409.156C233.028 409.156 231.422 416.925 231.19 421.959C231.096 424.013 232.715 425.735 234.774 425.7L242.649 425.563C243.49 425.551 244.283 425.164 244.811 424.51" fill="#213548"/>
<path d="M177.078 285.273C177.078 285.273 164.191 299.518 187.787 314.999C204.343 325.857 217.389 322.54 227.777 329.123C230.214 330.666 232.066 332.964 232.24 335.844L232.766 402.437L234.023 403.061C240.272 406.165 247.602 406.246 253.921 403.278L263.317 327.296C263.653 322.058 260.824 317.643 257.581 313.516C239.537 290.564 207.591 282.788 199.504 281.462C188.992 279.739 177.078 285.273 177.078 285.273" fill="#213548"/>
<path d="M182.715 402.225L181.619 409.136L186.794 415.945L200.239 409.588L201.77 403.278L185.18 400.538L182.715 402.225" fill="#F0B95D"/>
<path d="M193.19 424.646L194.592 422.957C194.849 422.649 195.326 422.649 195.582 422.959L196.943 424.601C197.496 425.265 198.315 425.649 199.178 425.647L230.217 425.543C230.816 424.945 230.988 423.906 230.301 423.197C225.817 418.544 201.446 410.275 200.239 409.588C199.027 408.903 191.462 414.617 181.619 409.136C181.619 409.136 179.904 416.88 179.604 421.911C179.48 423.964 181.079 425.707 183.135 425.7L191.015 425.672C191.856 425.669 192.652 425.296 193.19 424.646Z" fill="#213548"/>
<path d="M137.906 272.854C137.906 272.854 122.292 290.256 144.87 309.912C160.706 323.7 174.918 317.805 184.895 326.216C187.234 328.188 188.85 330.865 188.618 333.917L181.488 401.657L182.026 402.003C188.254 406.047 196.127 406.585 202.843 403.425L220.496 332.042C221.602 326.587 219.26 321.54 216.447 316.739C200.78 290.029 176.179 274.109 167.869 271.553C157.072 268.234 137.906 272.854 137.906 272.854" fill="#213548"/>
<path d="M224.044 327.215C222.857 326.71 221.645 326.306 220.407 325.952C219.75 322.77 218.184 319.689 216.442 316.733C208.687 303.499 198.711 292.89 189.618 285.288C195.276 284.328 198.155 283.116 199.721 281.525C202.828 282.03 209.092 283.444 216.669 286.121C224.347 298.952 224.322 319.79 224.044 327.215" fill="#18283A"/>
<path d="M179.944 180.76C179.944 180.76 157.427 177.757 148.067 195.303C138.709 212.85 124.732 281.636 136.954 283.727C142.364 284.652 156.793 288.284 172.779 287.114C194.76 285.505 199.537 283.482 201.123 279.302L215.126 215.201C215.454 206.384 211.531 197.9 204.495 192.57C193.275 184.066 179.944 180.76 179.944 180.76Z" fill="#D1EAF0"/>
<path d="M215.037 209.566C215.037 209.566 215.33 248.17 227.467 250.509C239.605 252.85 271.92 252.117 271.92 252.117V264.4H202.608L215.037 209.566Z" fill="#ABC9CD"/>
<path d="M198.256 192.053L200.989 178.401L183.279 164.911L179.884 181.007C179.884 181.007 185.471 205.583 198.256 192.053Z" fill="#EA8537"/>
<path d="M220.847 152.378C220.847 152.378 211.582 156.887 198.009 148.615C198.009 148.615 194.862 154.275 185.764 159.329C185.764 159.329 181.036 151.406 178.316 157.344C177.492 159.142 177.106 160.759 177.065 162.191C168.546 151.186 174.555 136.688 182.496 128.874C190.025 121.455 206.318 124.406 216.497 128.497C227.302 132.844 229.288 125.279 229.288 125.279C242.942 144.513 220.847 152.378 220.847 152.378" fill="#213548"/>
<path d="M185.759 159.326C185.759 159.326 181.033 151.403 178.313 157.338C175.012 164.542 178.737 169.058 183.208 169.058C183.208 169.058 186.754 187.791 203.965 186.468C221.18 185.144 223.66 157.505 220.847 152.375C220.847 152.375 211.58 156.884 198.009 148.61C198.009 148.61 194.864 154.277 185.759 159.326" fill="#F0B95D"/>
<path d="M334.947 203.141H263.102C259.561 203.141 256.51 205.633 255.803 209.104L246.238 255.982H333.293L342.247 212.082C343.191 207.462 339.66 203.141 334.947 203.141" fill="#D1EAF0"/>
<path d="M333.013 255.989H214.28C212.322 255.989 210.734 257.576 210.734 259.536V260.682C210.734 262.642 212.322 264.231 214.28 264.231H333.013C334.975 264.231 336.561 262.642 336.561 260.682V259.536C336.561 257.576 334.975 255.989 333.013 255.989Z" fill="#7EAAB0"/>
<path d="M333.013 255.987H245.286C247.243 255.987 248.829 257.576 248.829 259.536V260.682C248.829 262.642 247.243 264.231 245.286 264.231H333.013C334.975 264.231 336.561 262.642 336.561 260.682V259.536C336.561 257.576 334.975 255.987 333.013 255.987Z" fill="#ABC9CD"/>
<path d="M218.109 253.474C204.121 251.845 164.881 247.842 158.158 247.147C149.674 246.268 168.099 212.052 170.147 200.352C172.193 188.656 163.275 188.216 163.275 188.216C158.241 187.587 152.745 188.216 148.067 195.304C138.492 209.809 127.823 252.209 133.446 262.675C134.105 263.905 135.396 264.656 136.79 264.656H218.109V253.474" fill="#D1EAF0"/>
<path d="M218.109 253.474C218.109 253.474 167.589 249.999 156.695 248.536C148.244 247.402 165.858 212.345 167.904 200.648C169.953 188.949 160.888 189.436 160.888 189.436C158.615 189.156 155.339 189.474 152.997 190.176C156.379 187.954 159.923 187.802 163.28 188.211C163.28 188.211 172.193 188.656 170.147 200.353C168.099 212.052 152.308 245.538 157.645 246.854C164.209 248.473 204.118 251.85 218.109 253.474" fill="#ABC9CD"/>
<path d="M218.109 264.84H236.953C238.37 264.84 239.219 263.274 238.449 262.09C236.686 259.377 233.897 255.548 231.854 254.896C230.636 254.51 221.473 254.851 218.109 255.207V264.84Z" fill="#F0B95D"/>
<path d="M203.856 186.476C203.894 186.473 203.929 186.471 203.964 186.468C205.056 186.385 206.086 186.195 207.061 185.913C206.086 186.195 205.056 186.385 203.964 186.468C203.929 186.471 203.894 186.473 203.856 186.476Z" fill="#D39B64"/>
<path d="M216.578 153.452C216.578 153.447 216.578 153.444 216.581 153.439C219.301 153.111 220.847 152.376 220.847 152.376C220.847 152.376 219.311 153.123 216.578 153.452" fill="#A26B3E"/>
<path d="M202.3 186.534C199.959 186.534 197.9 186.135 196.074 185.478L196.461 185.537C197.557 185.713 198.58 185.794 199.537 185.794C211.522 185.792 212.878 173.067 212.878 173.067C212.878 173.067 214.242 173.168 215.313 173.168C215.581 173.168 215.831 173.16 216.035 173.145C217.061 173.067 215.404 162.805 215.719 159.491C215.939 157.172 216.348 154.73 216.578 153.452C219.311 153.124 220.847 152.376 220.847 152.376C221.471 153.513 221.834 155.755 221.834 158.574C221.837 167.662 218.061 182.725 207.061 185.913C206.086 186.196 205.056 186.385 203.965 186.469C203.929 186.471 203.894 186.474 203.856 186.476C203.326 186.514 202.805 186.534 202.3 186.534" fill="#EC9641"/>
<path d="M436.869 367.986C436.869 367.986 460.538 356.247 454.102 338.445C447.664 320.646 443.688 319.891 455.996 309.854C468.304 299.819 486.103 274.635 463.569 272.741C441.036 270.846 442.17 300.766 423.424 304.931C404.678 309.096 394.451 387.49 436.869 367.986" fill="#7ABBE9"/>
<path d="M427.001 370.962C429.915 370.631 433.194 369.676 436.869 367.986C436.869 367.986 455.193 358.899 455.211 344.588C455.193 358.899 436.869 367.986 436.869 367.986C433.194 369.676 429.915 370.631 427.001 370.962Z" fill="#CFDBE4"/>
<path d="M424.697 371.098C424.672 371.098 424.647 371.098 424.621 371.098C424.647 371.098 424.669 371.098 424.695 371.098C425.437 371.098 426.205 371.053 427.001 370.962C426.205 371.053 425.437 371.098 424.697 371.098ZM424.601 371.098C424.584 371.098 424.568 371.098 424.551 371.098C424.568 371.098 424.584 371.098 424.601 371.098ZM424.508 371.096C424.493 371.096 424.48 371.096 424.465 371.096C424.48 371.096 424.495 371.096 424.508 371.096ZM424.422 371.096C424.417 371.096 424.409 371.096 424.404 371.096C424.409 371.096 424.417 371.096 424.422 371.096Z" fill="url(#paint3_linear)"/>
<path d="M424.695 371.098C424.669 371.098 424.647 371.098 424.621 371.098C424.616 371.098 424.609 371.098 424.601 371.098C424.584 371.098 424.568 371.098 424.551 371.098C424.536 371.098 424.523 371.096 424.508 371.096C424.495 371.096 424.48 371.096 424.465 371.096C424.45 371.096 424.437 371.096 424.422 371.096C424.417 371.096 424.409 371.096 424.404 371.096C423.369 371.078 422.386 370.974 421.454 370.79C425.144 368.183 428.423 364.125 431.143 360.04C443.724 346.879 444.014 330.815 442.799 322.796C441.221 312.377 448.482 306.694 462.058 290.592C470.211 280.921 463.902 275.698 457.562 273.064C458.818 272.801 460.161 272.657 461.611 272.657C462.242 272.657 462.894 272.685 463.568 272.74C471.424 273.4 474.379 276.893 474.371 281.586C474.358 290.353 464.013 303.317 455.996 309.854C450.177 314.597 447.997 317.269 447.997 320.646C447.995 324.412 450.705 329.06 454.102 338.445C454.875 340.585 455.213 342.636 455.211 344.588C455.193 358.899 436.869 367.986 436.869 367.986C433.194 369.676 429.915 370.631 427.001 370.962C426.205 371.053 425.437 371.098 424.695 371.098" fill="#66A3DA"/>
<path d="M396.727 367.418C396.727 367.418 375.897 366.66 377.034 351.7C378.168 336.74 378.749 336.157 365.673 331.441C342.57 323.109 360.859 278.739 379.686 306.633C392.749 325.996 398.432 321.641 406.951 323.157C415.473 324.672 434.027 374.045 396.727 367.418Z" fill="#7ABBE9"/>
<path d="M394.936 321.556C393.81 321.131 392.64 320.54 391.4 319.704C392.638 320.54 393.81 321.131 394.936 321.556Z" fill="url(#paint4_linear)"/>
<path d="M400.698 367.911C400.344 367.883 399.995 367.858 399.629 367.82C399.654 366.779 399.627 365.749 399.548 364.726C400.324 365.526 400.917 366.122 401.251 366.456C401.064 366.946 400.879 367.433 400.698 367.911V367.911ZM402.372 339.019C401.036 339.019 398.899 338.354 396.459 337.693C394.022 337.028 391.284 336.364 388.743 336.364C388.066 336.364 387.402 336.412 386.763 336.518C379.666 326.966 372.144 319.002 371.447 313.008C370.775 307.232 367.08 305.573 363.054 305.573C360.793 305.573 358.427 306.095 356.436 306.704C358.482 301.471 362.362 297.538 367.088 297.538C370.906 297.538 375.278 300.109 379.683 306.633C384.386 313.605 388.132 317.502 391.4 319.704C392.64 320.54 393.81 321.131 394.936 321.556C396.861 325.127 398.957 328.658 400.986 331.818C404.587 337.435 404.436 339.019 402.372 339.019" fill="#63A0D7"/>
<path d="M401.554 366.754C401.554 366.754 375.708 341.478 384.512 337.215C387.907 335.573 392.567 336.632 396.459 337.692C402.665 339.38 406.918 341.069 400.985 331.817C391.329 316.767 380.085 293.317 393.433 297.01C406.782 300.7 407.752 304.759 406.1 287.225C403.963 264.547 416.61 252.858 428.539 260.243C440.465 267.628 418.312 317.618 426.548 312.22C434.785 306.825 441.602 302.281 443.307 308.813C445.012 315.344 419.724 340.994 429.104 336.647C440.751 331.252 442.456 340.908 438.763 346.873C435.07 352.839 419.731 388.341 401.554 366.754" fill="#386090"/>
<path d="M438.763 346.874C438.771 346.863 438.778 346.851 438.786 346.838C438.778 346.851 438.771 346.863 438.763 346.874ZM438.831 346.765C438.836 346.755 438.844 346.745 438.849 346.735C438.844 346.745 438.836 346.755 438.831 346.765ZM427.554 337.139C427.887 337.132 428.38 336.98 429.059 336.669C428.38 336.98 427.887 337.132 427.554 337.139ZM429.208 336.601C429.216 336.596 429.223 336.594 429.228 336.591C429.223 336.594 429.216 336.596 429.208 336.601ZM429.297 336.561C431.6 335.515 433.504 335.068 435.055 335.066C433.504 335.068 431.598 335.515 429.297 336.561ZM435.073 335.066C435.07 335.066 435.068 335.066 435.068 335.066C435.068 335.066 435.07 335.066 435.073 335.066Z" fill="#4879A6"/>
<path d="M425.712 304.262C428.743 290.807 436.783 265.348 428.539 260.243C436.785 265.348 428.743 290.81 425.712 304.262Z" fill="url(#paint5_linear)"/>
<path d="M425.518 312.627C424.149 312.627 424.584 309.28 425.713 304.262C424.584 309.278 424.149 312.629 425.518 312.627ZM425.877 312.564C425.879 312.564 425.879 312.564 425.882 312.561C425.879 312.564 425.879 312.564 425.877 312.564ZM425.889 312.559C425.892 312.559 425.894 312.559 425.899 312.556C425.894 312.559 425.892 312.559 425.889 312.559ZM425.902 312.556C425.907 312.554 425.91 312.554 425.915 312.551C425.91 312.554 425.907 312.554 425.902 312.556ZM425.915 312.551C425.945 312.541 425.978 312.528 426.011 312.516C425.978 312.528 425.945 312.541 425.915 312.551ZM426.018 312.511C426.021 312.511 426.023 312.508 426.026 312.508C426.023 312.508 426.021 312.511 426.018 312.511ZM426.036 312.503C426.038 312.503 426.041 312.501 426.044 312.501C426.041 312.501 426.038 312.503 426.036 312.503ZM426.069 312.488C426.071 312.488 426.074 312.488 426.076 312.485C426.074 312.488 426.071 312.488 426.069 312.488ZM426.549 312.22C426.614 312.177 426.683 312.134 426.748 312.092C426.683 312.134 426.614 312.177 426.549 312.22ZM426.965 311.95C427.041 311.9 427.117 311.849 427.195 311.798C427.117 311.849 427.041 311.9 426.965 311.95ZM427.39 311.67C427.559 311.559 427.731 311.447 427.897 311.339C427.731 311.447 427.559 311.559 427.39 311.67ZM427.918 311.326C432.424 308.381 436.422 305.883 439.268 305.61C436.422 305.883 432.424 308.381 427.918 311.326ZM443.34 308.962C443.34 308.955 443.337 308.947 443.337 308.939C443.337 308.947 443.34 308.955 443.34 308.962ZM443.332 308.914C443.325 308.879 443.317 308.846 443.307 308.813C443.317 308.846 443.325 308.879 443.332 308.914ZM439.773 305.585C439.771 305.585 439.768 305.585 439.766 305.585C439.768 305.585 439.771 305.585 439.773 305.585Z" fill="#4879A6"/>
<path d="M413.48 373.611C411.548 373.611 409.548 373.096 407.497 371.921C407.744 352.248 429.9 325.675 424.818 325.675C424.288 325.675 423.46 325.965 422.278 326.584C420.694 327.413 419.363 327.807 418.259 327.807C410.113 327.807 414.304 306.457 420.699 281.436C424.126 268.025 419.181 263.057 413.005 261.546C415.448 259.273 418.337 258.053 421.393 258.053C423.72 258.053 426.142 258.758 428.539 260.243C436.783 265.347 428.743 290.807 425.713 304.262C424.584 309.28 424.149 312.627 425.518 312.627C425.624 312.627 425.738 312.607 425.867 312.566C425.869 312.566 425.874 312.564 425.877 312.564C425.879 312.564 425.879 312.564 425.882 312.561C425.884 312.561 425.887 312.561 425.889 312.559C425.892 312.559 425.894 312.559 425.899 312.556H425.902C425.907 312.554 425.91 312.554 425.915 312.551C425.945 312.541 425.978 312.528 426.011 312.516C426.013 312.513 426.016 312.513 426.018 312.511C426.021 312.511 426.023 312.508 426.026 312.508C426.031 312.506 426.033 312.506 426.036 312.503C426.038 312.503 426.041 312.501 426.043 312.501C426.048 312.498 426.054 312.496 426.059 312.493C426.064 312.493 426.066 312.491 426.069 312.488C426.071 312.488 426.074 312.488 426.076 312.485C426.22 312.422 426.379 312.334 426.549 312.22C426.614 312.177 426.682 312.134 426.748 312.091C426.819 312.043 426.892 311.998 426.965 311.95C427.041 311.9 427.117 311.849 427.195 311.798C427.258 311.756 427.324 311.713 427.39 311.67C427.559 311.559 427.731 311.447 427.897 311.339C427.905 311.334 427.912 311.329 427.918 311.326C432.423 308.381 436.422 305.883 439.268 305.61C439.437 305.595 439.604 305.585 439.766 305.585C439.768 305.585 439.771 305.585 439.773 305.585C441.476 305.588 442.708 306.517 443.307 308.813C443.317 308.846 443.325 308.879 443.332 308.914C443.332 308.922 443.335 308.932 443.337 308.939C443.337 308.947 443.34 308.954 443.34 308.962C444.537 315.198 423.507 337.142 427.521 337.142C427.534 337.142 427.544 337.142 427.554 337.139C427.887 337.132 428.38 336.98 429.059 336.669C429.074 336.662 429.089 336.654 429.105 336.647C429.14 336.632 429.173 336.616 429.208 336.601C429.216 336.596 429.223 336.594 429.228 336.591C429.251 336.581 429.274 336.571 429.297 336.561C431.598 335.515 433.504 335.068 435.055 335.066C435.058 335.066 435.063 335.066 435.068 335.066C435.068 335.066 435.07 335.066 435.073 335.066C441.163 335.071 441.685 341.999 438.849 346.735C438.844 346.745 438.836 346.755 438.831 346.765C438.816 346.79 438.801 346.813 438.786 346.838C438.778 346.851 438.771 346.863 438.763 346.874C435.917 351.473 426.142 373.611 413.48 373.611" fill="#2C4A6C"/>
<path d="M383.656 369.719L388.657 415.011C389.286 420.671 394.07 424.957 399.766 424.957H428.637C434.33 424.957 439.117 420.671 439.741 415.011L444.744 369.719C445.017 367.256 443.087 365.102 440.607 365.102H387.794C385.313 365.102 383.386 367.256 383.656 369.719Z" fill="#D1EAF0"/>
<path d="M440.607 365.102H422.295C424.775 365.102 426.705 367.256 426.432 369.719L421.429 415.011C420.805 420.671 416.019 424.957 410.326 424.957H428.637C434.33 424.957 439.117 420.671 439.741 415.011L444.744 369.719C445.017 367.256 443.087 365.102 440.607 365.102Z" fill="#ABC9CD"/>
<path d="M384.46 264.693H74.9064C71.431 264.693 68.6147 267.51 68.6147 270.985V273.023C68.6147 276.499 71.431 279.317 74.9064 279.317H384.46C387.935 279.317 390.754 276.499 390.754 273.023V270.985C390.754 267.51 387.935 264.693 384.46 264.693Z" fill="#4E8AD0"/>
<path d="M384.46 264.694H74.9064C71.431 264.694 68.6147 267.51 68.6147 270.985V273.023C68.6147 273.693 68.746 274.324 68.938 274.93C69.7513 272.392 72.0978 270.543 74.9064 270.543H384.46C387.268 270.543 389.617 272.392 390.428 274.93C390.622 274.324 390.754 273.693 390.754 273.023V270.985C390.754 267.51 387.935 264.694 384.46 264.694Z" fill="#3670B1"/>
<path d="M172.746 425.177H162.401L90.422 279.388H100.77L172.746 425.177" fill="#386090"/>
<path d="M58.8374 425.177H69.1829L141.162 279.388H130.816L58.8374 425.177" fill="#386090"/>
<path d="M395.595 425.177H385.25L313.271 279.388H323.617L395.595 425.177" fill="#386090"/>
<path d="M281.687 425.177H292.032L364.011 279.388H353.663L281.687 425.177" fill="#386090"/>
<path d="M103.622 285.165L100.77 279.388H90.422L93.2736 285.165H103.622Z" fill="#1F334E"/>
<path d="M138.31 285.165L141.162 279.388H130.816L127.965 285.165H138.31Z" fill="#1F334E"/>
<path d="M326.468 285.165L323.617 279.388H313.271L316.123 285.165H326.468Z" fill="#1F334E"/>
<path d="M361.159 285.165L364.011 279.388H353.663L350.811 285.165H361.159Z" fill="#1F334E"/>
<defs>
<linearGradient id="paint0_linear" x1="250.001" y1="394.57" x2="250.001" y2="-44.9103" gradientUnits="userSpaceOnUse">
<stop stop-color="white"/>
<stop offset="1" stop-color="#C6E6F8"/>
</linearGradient>
<linearGradient id="paint1_linear" x1="250.001" y1="394.57" x2="250.001" y2="-44.9087" gradientUnits="userSpaceOnUse">
<stop stop-color="#EDF8FA"/>
<stop offset="1" stop-color="#CAE8F5"/>
</linearGradient>
<linearGradient id="paint2_linear" x1="250.149" y1="394.57" x2="250.149" y2="-44.9103" gradientUnits="userSpaceOnUse">
<stop stop-color="#CFDBE4"/>
<stop offset="1" stop-color="#A0C5E1"/>
</linearGradient>
<linearGradient id="paint3_linear" x1="249.997" y1="394.572" x2="249.997" y2="-44.9404" gradientUnits="userSpaceOnUse">
<stop stop-color="#CFDBE4"/>
<stop offset="1" stop-color="#A0C5E1"/>
</linearGradient>
<linearGradient id="paint4_linear" x1="250.001" y1="394.571" x2="250.001" y2="-44.9141" gradientUnits="userSpaceOnUse">
<stop stop-color="#C7D4E0"/>
<stop offset="1" stop-color="#9BBFDD"/>
</linearGradient>
<linearGradient id="paint5_linear" x1="250.002" y1="394.57" x2="250.002" y2="-44.9104" gradientUnits="userSpaceOnUse">
<stop stop-color="#8F9DA7"/>
<stop offset="1" stop-color="#6F8FA7"/>
</linearGradient>
</defs>
</svg>
