<svg width="101" height="102" viewBox="0 0 101 102" fill="none" xmlns="http://www.w3.org/2000/svg">
<path d="M46.7457 101C72.0103 101 92.4913 80.519 92.4913 55.2543C92.4913 29.9897 72.0103 9.50867 46.7457 9.50867C21.481 9.50867 1 29.9897 1 55.2543C1 80.519 21.481 101 46.7457 101Z" fill="#FF5751"/>
<path d="M46.7457 91.8509C26.5261 91.8509 10.1491 75.4739 10.1491 55.2544C10.1491 35.0348 26.5261 18.6578 46.7457 18.6578C66.9652 18.6578 83.3422 35.0348 83.3422 55.2544C83.3422 75.4739 66.9652 91.8509 46.7457 91.8509Z" fill="white"/>
<path d="M46.7457 82.7017C31.6496 82.7017 19.2983 70.3504 19.2983 55.2543C19.2983 40.1583 31.6496 27.8069 46.7457 27.8069C61.8417 27.8069 74.1931 40.1583 74.1931 55.2543C74.1931 70.3504 61.8417 82.7017 46.7457 82.7017Z" fill="#FF5751"/>
<path d="M46.7457 73.5526C36.6816 73.5526 28.4474 65.3184 28.4474 55.2543C28.4474 45.1903 36.6816 36.9561 46.7457 36.9561C56.8097 36.9561 65.0439 45.1903 65.0439 55.2543C65.0439 65.3184 56.8097 73.5526 46.7457 73.5526Z" fill="white"/>
<path d="M46.7457 64.4034C41.7136 64.4034 37.5965 60.2863 37.5965 55.2543C37.5965 50.2223 41.7136 46.1052 46.7457 46.1052C51.7777 46.1052 55.8948 50.2223 55.8948 55.2543C55.8948 60.2863 51.7777 64.4034 46.7457 64.4034Z" fill="#FF5751"/>
<path d="M46.7457 101C72.0103 101 92.4913 80.519 92.4913 55.2543C92.4913 29.9897 72.0103 9.50867 46.7457 9.50867C21.481 9.50867 1 29.9897 1 55.2543C1 80.519 21.481 101 46.7457 101Z" stroke="#242C88" stroke-width="2" stroke-miterlimit="10" stroke-linecap="round" stroke-linejoin="round"/>
<path opacity="0.2" d="M87.9168 55.2543C87.9168 78.0357 69.527 96.4254 46.7457 96.4254" stroke="#242C88" stroke-width="8" stroke-miterlimit="10" stroke-linecap="round" stroke-linejoin="round"/>
<path opacity="0.2" d="M5.57457 55.2543C5.57457 32.473 23.9643 14.0833 46.7457 14.0833" stroke="white" stroke-width="8" stroke-miterlimit="10" stroke-linecap="round" stroke-linejoin="round"/>
<path d="M46.7457 91.8509C26.5261 91.8509 10.1491 75.4739 10.1491 55.2544C10.1491 35.0348 26.5261 18.6578 46.7457 18.6578C66.9652 18.6578 83.3422 35.0348 83.3422 55.2544C83.3422 75.4739 66.9652 91.8509 46.7457 91.8509Z" stroke="#242C88" stroke-width="2" stroke-miterlimit="10" stroke-linecap="round" stroke-linejoin="round"/>
<path d="M46.7457 82.7017C31.6496 82.7017 19.2983 70.3504 19.2983 55.2543C19.2983 40.1583 31.6496 27.8069 46.7457 27.8069C61.8417 27.8069 74.1931 40.1583 74.1931 55.2543C74.1931 70.3504 61.8417 82.7017 46.7457 82.7017Z" stroke="#242C88" stroke-width="2" stroke-miterlimit="10" stroke-linecap="round" stroke-linejoin="round"/>
<path d="M46.7457 73.5526C36.6816 73.5526 28.4474 65.3184 28.4474 55.2543C28.4474 45.1903 36.6816 36.9561 46.7457 36.9561C56.8097 36.9561 65.0439 45.1903 65.0439 55.2543C65.0439 65.3184 56.8097 73.5526 46.7457 73.5526Z" stroke="#242C88" stroke-width="2" stroke-miterlimit="10" stroke-linecap="round" stroke-linejoin="round"/>
<path d="M46.7457 64.4034C41.7136 64.4034 37.5965 60.2863 37.5965 55.2543C37.5965 50.2223 41.7136 46.1052 46.7457 46.1052C51.7777 46.1052 55.8948 50.2223 55.8948 55.2543C55.8948 60.2863 51.7777 64.4034 46.7457 64.4034Z" stroke="#242C88" stroke-width="2" stroke-miterlimit="10" stroke-linecap="round" stroke-linejoin="round"/>
<path d="M46.7457 55.2543L87.9168 14.0833" stroke="#242C88" stroke-width="4" stroke-miterlimit="10" stroke-linecap="round" stroke-linejoin="round"/>
<path d="M87.9167 25.0622L77.9442 24.0558L76.9378 14.0833L88.5572 2.46387L89.5636 12.4364L99.5361 13.4428L87.9167 25.0622Z" fill="#83D689"/>
<path d="M87.9167 25.0622L77.9442 24.0558L76.9378 14.0833L88.5572 2.46387L89.5636 12.4364L99.5361 13.4428L87.9167 25.0622Z" stroke="#242C88" stroke-width="2" stroke-miterlimit="10" stroke-linecap="round" stroke-linejoin="round"/>
<path opacity="0.2" d="M87.9167 25.0622L77.9442 24.0558L89.5636 12.4364L99.5361 13.4428L87.9167 25.0622Z" fill="#242C88"/>
<path d="M66.6908 43.4519L79.8655 30.1857" stroke="white" stroke-width="2" stroke-miterlimit="10" stroke-linecap="round" stroke-linejoin="round"/>
<path d="M76.9378 9.50869L85.4465 1" stroke="#242C88" stroke-width="2" stroke-miterlimit="10" stroke-linecap="round" stroke-linejoin="round"/>
<path d="M46.1052 50.4053L54.7054 41.8051" stroke="#242C88" stroke-width="2" stroke-miterlimit="10" stroke-linecap="round" stroke-linejoin="round"/>
<path d="M82.6103 8.41077V19.3897L79.957 11.064" stroke="#242C88" stroke-width="2" stroke-miterlimit="10" stroke-linecap="round" stroke-linejoin="round"/>
<path d="M86.5444 15.9131L95.602 17.3769" stroke="#242C88" stroke-width="2" stroke-miterlimit="10" stroke-linecap="round" stroke-linejoin="round"/>
<path d="M77.9442 24.0558L89.5636 12.4364" stroke="#242C88" stroke-width="2" stroke-miterlimit="10" stroke-linecap="round" stroke-linejoin="round"/>
</svg>
