<svg width="101" height="100" viewBox="0 0 101 100" fill="none" xmlns="http://www.w3.org/2000/svg">
<g clip-path="url(#clip0)">
<path fill-rule="evenodd" clip-rule="evenodd" d="M59.3629 56.2589L49.9898 65.632L43.7411 71.8807V81.2538L34.368 96.8756L40.6168 100L62.4873 78.1294L59.3629 56.2589ZM43.7411 40.6371L21.8706 37.5127L0 59.3833L3.12437 65.632L18.7462 56.2589H28.1193L34.368 50.0102L43.7411 40.6371Z" fill="#CCCCCC"/>
<path d="M15.6218 68.7563C9.46839 77.7358 0.040616 88.807 -7.56162e-07 93.7513C-0.0328066 97.5052 2.462 100.033 6.24873 100C11.2743 99.9578 21.8877 90.5785 31.2437 84.3782L15.6218 68.7563Z" fill="#FFCC66"/>
<path d="M24.9949 65.632C18.8415 74.6114 6.24873 85.6826 6.24873 90.6269C6.24873 93.8934 6.56273 93.7512 9.3731 93.7512C14.3986 93.7512 25.0121 81.2054 34.368 75.0051L24.9949 65.632Z" fill="#ED7161"/>
<path d="M93.731 0.0203452C83.9111 0.628034 66.9583 1.79655 46.8655 21.8909C32.0857 36.6707 19.1196 58.1617 13.0411 72.4228L27.6741 87.0558C41.8556 81.0367 63.2043 68.0378 78.1091 53.1346C98.0723 33.1714 99.2095 16.1593 99.9797 6.26908C100.323 1.85435 97.8145 -0.232728 93.731 0.0203452Z" fill="#387AA7"/>
<path d="M93.731 0.0203452C83.9111 0.628034 66.9583 1.79655 46.8655 21.8909C34.7992 33.9556 23.9576 50.4898 17.0622 63.9214L36.1755 83.0347C49.5259 76.158 65.9585 65.2852 78.1091 53.1346C98.0723 33.1714 99.2095 16.1593 99.9797 6.26908C100.323 1.85435 97.8145 -0.232728 93.731 0.0203452Z" fill="#48A0DC"/>
<path d="M74.9848 37.5127C81.8869 37.5127 87.4822 31.9174 87.4822 25.0152C87.4822 18.1131 81.8869 12.5178 74.9848 12.5178C68.0826 12.5178 62.4873 18.1131 62.4873 25.0152C62.4873 31.9174 68.0826 37.5127 74.9848 37.5127Z" fill="#4D4D4D"/>
<path d="M74.9848 31.2639C78.4358 31.2639 81.2335 28.4663 81.2335 25.0152C81.2335 21.5641 78.4358 18.7665 74.9848 18.7665C71.5337 18.7665 68.736 21.5641 68.736 25.0152C68.736 28.4663 71.5337 31.2639 74.9848 31.2639Z" fill="white"/>
</g>
<defs>
<clipPath id="clip0">
<rect width="100.011" height="100" fill="white"/>
</clipPath>
</defs>
</svg>
