<svg width="100" height="100" viewBox="0 0 100 100" fill="none" xmlns="http://www.w3.org/2000/svg">
<path d="M30.9802 54.2687C10.0552 54.2687 1.59271 33.0645 0.0364598 21.3854C-0.0418873 20.797 0.00636779 20.1987 0.177994 19.6305C0.349621 19.0624 0.640657 18.5374 1.03162 18.0908C1.42258 17.6442 1.90444 17.2863 2.44493 17.0411C2.98543 16.7958 3.57209 16.6688 4.16563 16.6687H24.999C26.104 16.6687 27.1638 17.1077 27.9452 17.8891C28.7266 18.6705 29.1656 19.7303 29.1656 20.8354C29.1656 21.9404 28.7266 23.0002 27.9452 23.7816C27.1638 24.563 26.104 25.002 24.999 25.002H9.30938C11.4219 32.7562 17.4469 47.1541 32.9865 45.8499C34.0814 45.7697 35.1638 46.1248 35.9984 46.8382C36.8329 47.5516 37.3522 48.5655 37.4433 49.6596C37.5344 50.7537 37.1901 51.8396 36.485 52.6812C35.78 53.5228 34.7713 54.0521 33.6781 54.1541C32.7531 54.2319 31.8538 54.2701 30.9802 54.2687Z" fill="#FABB53"/>
<path d="M81.251 4.1687H18.751C16.4498 4.1687 14.5844 6.03418 14.5844 8.33537C14.5844 10.6366 16.4498 12.502 18.751 12.502H81.251C83.5522 12.502 85.4177 10.6366 85.4177 8.33537C85.4177 6.03418 83.5522 4.1687 81.251 4.1687Z" fill="#F7972E"/>
<path d="M81.251 4.1687H18.751C16.4498 4.1687 14.5844 6.03418 14.5844 8.33537C14.5844 10.6366 16.4498 12.502 18.751 12.502H81.251C83.5522 12.502 85.4177 10.6366 85.4177 8.33537C85.4177 6.03418 83.5522 4.1687 81.251 4.1687Z" fill="#FAB353"/>
<path d="M69.0173 54.2687C68.1382 54.2687 67.2388 54.2305 66.3194 54.1541C65.7702 54.1139 65.2344 53.9652 64.7431 53.7166C64.2517 53.468 63.8145 53.1245 63.4567 52.7059C63.0989 52.2873 62.8276 51.802 62.6585 51.2779C62.4895 50.7539 62.4259 50.2015 62.4717 49.6527C62.5174 49.104 62.6714 48.5697 62.9248 48.0809C63.1783 47.592 63.5261 47.1582 63.9482 46.8046C64.3703 46.451 64.8584 46.1845 65.3841 46.0207C65.9098 45.8568 66.4628 45.7988 67.0111 45.8499C82.6361 47.1458 88.6153 32.7583 90.7049 25.002H74.9986C73.8935 25.002 72.8337 24.563 72.0523 23.7816C71.2709 23.0002 70.8319 21.9404 70.8319 20.8354C70.8319 19.7303 71.2709 18.6705 72.0523 17.8891C72.8337 17.1077 73.8935 16.6687 74.9986 16.6687H95.832C96.4256 16.6688 97.0122 16.7958 97.5527 17.0411C98.0932 17.2863 98.5751 17.6442 98.9661 18.0908C99.357 18.5374 99.6481 19.0624 99.8197 19.6305C99.9913 20.1987 100.04 20.797 99.9612 21.3854C98.405 33.0645 89.9403 54.2666 69.0173 54.2687Z" fill="#FACE53"/>
<path d="M69.0173 54.2687C68.1382 54.2687 67.2388 54.2305 66.3194 54.1541C65.7702 54.1139 65.2344 53.9652 64.7431 53.7166C64.2517 53.468 63.8145 53.1245 63.4567 52.7059C63.0989 52.2873 62.8276 51.802 62.6585 51.2779C62.4895 50.7539 62.4259 50.2015 62.4717 49.6527C62.5174 49.104 62.6714 48.5697 62.9248 48.0809C63.1783 47.592 63.5261 47.1582 63.9482 46.8046C64.3703 46.451 64.8584 46.1845 65.3841 46.0207C65.9098 45.8568 66.4628 45.7988 67.0111 45.8499C82.6361 47.1458 88.6153 32.7583 90.7049 25.002H74.9986C73.8935 25.002 72.8337 24.563 72.0523 23.7816C71.2709 23.0002 70.8319 21.9404 70.8319 20.8354C70.8319 19.7303 71.2709 18.6705 72.0523 17.8891C72.8337 17.1077 73.8935 16.6687 74.9986 16.6687H95.832C96.4256 16.6688 97.0122 16.7958 97.5527 17.0411C98.0932 17.2863 98.5751 17.6442 98.9661 18.0908C99.357 18.5374 99.6481 19.0624 99.8197 19.6305C99.9913 20.1987 100.04 20.797 99.9612 21.3854C98.405 33.0645 89.9403 54.2666 69.0173 54.2687Z" fill="#FABB53"/>
<path d="M58.3323 72.9167H41.6656L43.749 62.5H56.249L58.3323 72.9167Z" fill="#FABB53"/>
<path d="M70.8323 93.7527H29.1656V75.0027C29.1804 74.4356 29.4198 73.8975 29.8311 73.5068C30.2425 73.1161 30.7922 72.9049 31.3594 72.9194H68.6386C69.2057 72.9049 69.7554 73.1161 70.1668 73.5068C70.5782 73.8975 70.8176 74.4356 70.8323 75.0027V93.7527Z" fill="#4C5665"/>
<path d="M62.5 79.1687H37.5V89.5854H62.5V79.1687Z" fill="#616C7F"/>
<path d="M20.8344 12.5H79.1679V35.4167C79.1679 43.1521 76.095 50.5708 70.6251 56.0406C65.1553 61.5104 57.7366 64.5833 50.0011 64.5833V64.5833C42.2656 64.5833 34.8469 61.5104 29.3771 56.0406C23.9073 50.5708 20.8344 43.1521 20.8344 35.4167V12.5Z" fill="#FACE53"/>
<path d="M77.0845 93.75H22.9177C21.7671 93.75 20.8344 94.6827 20.8344 95.8333V97.9167C20.8344 99.0673 21.7671 100 22.9177 100H77.0845C78.2351 100 79.1679 99.0673 79.1679 97.9167V95.8333C79.1679 94.6827 78.2351 93.75 77.0845 93.75Z" fill="#3F4856"/>
</svg>
